<?xml version="1.0" encoding="UTF-8" standalone="no"?>
<svg
   xmlns:dc="http://purl.org/dc/elements/1.1/"
   xmlns:cc="http://creativecommons.org/ns#"
   xmlns:rdf="http://www.w3.org/1999/02/22-rdf-syntax-ns#"
   xmlns:svg="http://www.w3.org/2000/svg"
   xmlns="http://www.w3.org/2000/svg"
   viewBox="0 0 620.8667 1371.916"
   height="1371.916"
   width="620.8667"
   xml:space="preserve"
   id="svg2"
   version="1.1"><metadata
     id="metadata8"><rdf:RDF><cc:Work
         rdf:about=""><dc:format>image/svg+xml</dc:format><dc:type
           rdf:resource="http://purl.org/dc/dcmitype/StillImage" /></cc:Work></rdf:RDF></metadata><defs
     id="defs6" /><g
     transform="matrix(1.3333333,0,0,-1.3333333,0,1371.916)"
     id="g10"><g
       id="g12" /><g
       id="g14"><g
         transform="matrix(1,0,0,-1,200.25,969.9369)"
         id="g16"><path
           id="path18"
           style="fill:none;stroke:#000000;stroke-width:2.20000005;stroke-linecap:round;stroke-linejoin:miter;stroke-miterlimit:10;stroke-dasharray:none;stroke-opacity:1"
           d="M 0,3.051758e-5 32.45,0 M 64.89999,3.051758e-5 32.45,0" /></g><g
         transform="matrix(1,0,0,-1,200.25,670.1825)"
         id="g20"><path
           id="path22"
           style="fill:none;stroke:#000000;stroke-width:2.20000005;stroke-linecap:round;stroke-linejoin:miter;stroke-miterlimit:10;stroke-dasharray:none;stroke-opacity:1"
           d="M 32.27023,641.4327 V 3.612039e-5 M 0,481.1191 H 32.27023 M 0,319.9519 H 32.27023 M 0,0 H 32.27023 M 0,641.4325 H 32.27023 M 0,79.79999 H 32.27023 M 0,561.2786 H 32.27023 M 0,240.1519 H 32.27023 M 0,401.6787 H 32.27023 M 0,159.6 H 32.27023 M 64.54046,299.4799 H 32.27023" /></g><g
         transform="matrix(1,0,0,-1,364.7904,911.4368)"
         id="g24"><path
           id="path26"
           style="fill:none;stroke:#000000;stroke-width:2.20000005;stroke-linecap:round;stroke-linejoin:miter;stroke-miterlimit:10;stroke-dasharray:none;stroke-opacity:1"
           d="M 0,256.1171 H 0.3596191 M 0.3595734,0 V 256.1171 M 3.751287e-5,512.2343 V 256.1171" /></g><g
         transform="matrix(1,0,0,-1,200.25,823.6369)"
         id="g28"><path
           id="path30"
           style="fill:none;stroke:#000000;stroke-width:2.20000005;stroke-linecap:round;stroke-linejoin:miter;stroke-miterlimit:10;stroke-dasharray:none;stroke-opacity:1"
           d="M 0,3.051758e-5 32.45,0 M 64.89999,3.051758e-5 32.45,0" /></g><g
         transform="matrix(1,0,0,-1,365.15,911.4368)"
         id="g32"><path
           id="path34"
           style="fill:none;stroke:#000000;stroke-width:2.20000005;stroke-linecap:round;stroke-linejoin:miter;stroke-miterlimit:10;stroke-dasharray:none;stroke-opacity:1"
           d="M 1.525879e-5,0 0,34.4 M 1.525879e-5,68.8 0,34.4" /></g><path
         id="path36"
         style="fill:#ffc0a9;fill-opacity:1;fill-rule:nonzero;stroke:none"
         d="m 0.25,698.6825 h 200 c 0,0 0,0 0,0 v -57 c 0,0 0,0 0,0 h -200 c 0,0 0,0 0,0 v 57 c 0,0 0,0 0,0 z" /><g
         transform="matrix(1,0,0,-1,0.25,698.6825)"
         id="g38"><path
           id="path40"
           style="fill:none;stroke:#000000;stroke-width:0.5;stroke-linecap:butt;stroke-linejoin:miter;stroke-miterlimit:10;stroke-dasharray:none;stroke-opacity:1"
           d="m 0,0 h 200 c 0,0 0,0 0,0 v 57 c 0,0 0,0 0,0 H 0 c 0,0 0,0 0,0 V 0 c 0,0 0,0 0,0 z" /></g><g
         transform="translate(10.25,670.6825)"
         id="g42"><text
           id="text46"
           style="font-variant:normal;font-weight:bold;font-size:14px;font-family:Helvetica;-inkscape-font-specification:Helvetica-Bold;writing-mode:lr-tb;fill:#000000;fill-opacity:1;fill-rule:nonzero;stroke:none"
           transform="matrix(1,0,0,-1,44.99902,4)"><tspan
             id="tspan44"
             y="0"
             x="0 7.5194001 15.3062 20.754999 28.5418 36.328602 44.115398 48.004601 59.666599 67.4534 72.902199 76.791397 85.342598">Teresa Mariot</tspan></text>
</g><g
         transform="translate(10.25,651.6825)"
         id="g48"><text
           id="text52"
           style="font-variant:normal;font-weight:bold;font-size:10px;font-family:Helvetica;-inkscape-font-specification:Helvetica-Bold;writing-mode:lr-tb;fill:#5f463c;fill-opacity:1;fill-rule:nonzero;stroke:none"
           transform="matrix(1,0,0,-1,0,3)"><tspan
             id="tspan50"
             y="0"
             x="0 7.2220001 12.784 18.346001 23.908001 26.686001 35.577999 41.139999 47.248001 50.577999">Nascimento</tspan></text>
</g><g
         transform="translate(140.2012,651.6825)"
         id="g54"><text
           id="text58"
           style="font-variant:normal;font-weight:normal;font-size:10px;font-family:Helvetica;-inkscape-font-specification:Helvetica;writing-mode:lr-tb;fill:#5f463c;fill-opacity:1;fill-rule:nonzero;stroke:none"
           transform="matrix(1,0,0,-1,0,3)"><tspan
             id="tspan56"
             y="0"
             x="0 5.5619998 11.124 13.906 19.468 25.030001 27.812 33.374001 38.936001 44.498001">05/07/1894</tspan></text>
</g><path
         id="path60"
         style="fill:#a9c2ff;fill-opacity:1;fill-rule:nonzero;stroke:none"
         d="m 0.25,618.8825 h 200 c 0,0 0,0 0,0 v -57 c 0,0 0,0 0,0 h -200 c 0,0 0,0 0,0 v 57 c 0,0 0,0 0,0 z" /><g
         transform="matrix(1,0,0,-1,0.25,618.8825)"
         id="g62"><path
           id="path64"
           style="fill:none;stroke:#000000;stroke-width:0.5;stroke-linecap:butt;stroke-linejoin:miter;stroke-miterlimit:10;stroke-dasharray:none;stroke-opacity:1"
           d="m 0,0 h 200 c 0,0 0,0 0,0 v 57 c 0,0 0,0 0,0 H 0 c 0,0 0,0 0,0 V 0 c 0,0 0,0 0,0 z" /></g><g
         transform="translate(10.25,590.8825)"
         id="g66"><text
           id="text70"
           style="font-variant:normal;font-weight:bold;font-size:14px;font-family:Helvetica;-inkscape-font-specification:Helvetica-Bold;writing-mode:lr-tb;fill:#000000;fill-opacity:1;fill-rule:nonzero;stroke:none"
           transform="matrix(1,0,0,-1,50.33789,4)"><tspan
             id="tspan68"
             y="0"
             x="0 8.5511999 17.1024 20.9916 29.542801 33.431999 37.321201 48.9832 56.77 62.2188 66.108002 74.659203">Luigi Mariot</tspan></text>
</g><g
         transform="translate(10.25,571.8825)"
         id="g72"><text
           id="text76"
           style="font-variant:normal;font-weight:bold;font-size:10px;font-family:Helvetica;-inkscape-font-specification:Helvetica-Bold;writing-mode:lr-tb;fill:#3c475f;fill-opacity:1;fill-rule:nonzero;stroke:none"
           transform="matrix(1,0,0,-1,0,3)"><tspan
             id="tspan74"
             y="0"
             x="0 7.2220001 12.784 18.346001 23.908001 26.686001 35.577999 41.139999 47.248001 50.577999">Nascimento</tspan></text>
</g><g
         transform="translate(140.2012,571.8825)"
         id="g78"><text
           id="text82"
           style="font-variant:normal;font-weight:normal;font-size:10px;font-family:Helvetica;-inkscape-font-specification:Helvetica;writing-mode:lr-tb;fill:#3c475f;fill-opacity:1;fill-rule:nonzero;stroke:none"
           transform="matrix(1,0,0,-1,0,3)"><tspan
             id="tspan80"
             y="0"
             x="0 5.5619998 11.124 13.906 19.468 25.030001 27.812 33.374001 38.936001 44.498001">16/04/1897</tspan></text>
</g><path
         id="path84"
         style="fill:#ffc0a9;fill-opacity:1;fill-rule:nonzero;stroke:none"
         d="m 0.25,297.0039 h 200 c 0,0 0,0 0,0 v -57 c 0,0 0,0 0,0 h -200 c 0,0 0,0 0,0 v 57 c 0,0 0,0 0,0 z" /><g
         transform="matrix(1,0,0,-1,0.25,297.0039)"
         id="g86"><path
           id="path88"
           style="fill:none;stroke:#000000;stroke-width:0.5;stroke-linecap:butt;stroke-linejoin:miter;stroke-miterlimit:10;stroke-dasharray:none;stroke-opacity:1"
           d="m 0,0 h 200 c 0,0 0,0 0,0 v 57 c 0,0 0,0 0,0 H 0 c 0,0 0,0 0,0 V 0 c 0,0 0,0 0,0 z" /></g><g
         transform="translate(10.25,269.0039)"
         id="g90"><text
           id="text94"
           style="font-variant:normal;font-weight:bold;font-size:14px;font-family:Helvetica;-inkscape-font-specification:Helvetica-Bold;writing-mode:lr-tb;fill:#000000;fill-opacity:1;fill-rule:nonzero;stroke:none"
           transform="matrix(1,0,0,-1,49.93799,4)"><tspan
             id="tspan92"
             y="0"
             x="0 10.1108 18.662001 26.448799 34.2356 38.124802 49.7868 57.573601 63.0224 66.911598 75.462799">Rosa Mariot</tspan></text>
</g><g
         transform="translate(10.25,250.0039)"
         id="g96"><text
           id="text100"
           style="font-variant:normal;font-weight:bold;font-size:10px;font-family:Helvetica;-inkscape-font-specification:Helvetica-Bold;writing-mode:lr-tb;fill:#5f463c;fill-opacity:1;fill-rule:nonzero;stroke:none"
           transform="matrix(1,0,0,-1,0,3)"><tspan
             id="tspan98"
             y="0"
             x="0 7.2220001 12.784 18.346001 23.908001 26.686001 35.577999 41.139999 47.248001 50.577999">Nascimento</tspan></text>
</g><g
         transform="translate(162.1641,250.0039)"
         id="g102"><text
           id="text106"
           style="font-variant:normal;font-weight:normal;font-size:10px;font-family:Helvetica;-inkscape-font-specification:Helvetica;writing-mode:lr-tb;fill:#5f463c;fill-opacity:1;fill-rule:nonzero;stroke:none"
           transform="matrix(1,0,0,-1,0,3)"><tspan
             id="tspan104"
             y="0"
             x="0 5.8400002 11.402 16.964001 22.525999">~1905</tspan></text>
</g><path
         id="path108"
         style="fill:#ffc0a9;fill-opacity:1;fill-rule:nonzero;stroke:none"
         d="m 0.25,57.25 h 200 c 0,0 0,0 0,0 v -57 c 0,0 0,0 0,0 h -200 c 0,0 0,0 0,0 v 57 c 0,0 0,0 0,0 z" /><g
         transform="matrix(1,0,0,-1,0.25,57.25)"
         id="g110"><path
           id="path112"
           style="fill:none;stroke:#000000;stroke-width:0.5;stroke-linecap:butt;stroke-linejoin:miter;stroke-miterlimit:10;stroke-dasharray:none;stroke-opacity:1"
           d="m 0,0 h 200 c 0,0 0,0 0,0 v 57 c 0,0 0,0 0,0 H 0 c 0,0 0,0 0,0 V 0 c 0,0 0,0 0,0 z" /></g><g
         transform="translate(10.25,29.25)"
         id="g114"><text
           id="text118"
           style="font-variant:normal;font-weight:bold;font-size:14px;font-family:Helvetica;-inkscape-font-specification:Helvetica-Bold;writing-mode:lr-tb;fill:#000000;fill-opacity:1;fill-rule:nonzero;stroke:none"
           transform="matrix(1,0,0,-1,41.00342,4)"><tspan
             id="tspan116"
             y="0"
             x="0 10.1108 18.662001 23.323999 31.8752 40.426399 44.315601 52.102402 55.9916 67.653603 75.440399 80.889198 84.778397 93.329597">Antonia Mariot</tspan></text>
</g><g
         transform="translate(10.25,10.25)"
         id="g120"><text
           id="text124"
           style="font-variant:normal;font-weight:bold;font-size:10px;font-family:Helvetica;-inkscape-font-specification:Helvetica-Bold;writing-mode:lr-tb;fill:#5f463c;fill-opacity:1;fill-rule:nonzero;stroke:none"
           transform="matrix(1,0,0,-1,0,3)"><tspan
             id="tspan122"
             y="0"
             x="0 7.2220001 12.784 18.346001 23.908001 26.686001 35.577999 41.139999 47.248001 50.577999">Nascimento</tspan></text>
</g><g
         transform="translate(162.9014,10.25)"
         id="g126"><text
           id="text130"
           style="font-variant:normal;font-weight:normal;font-size:10px;font-family:Helvetica;-inkscape-font-specification:Helvetica;writing-mode:lr-tb;fill:#5f463c;fill-opacity:1;fill-rule:nonzero;stroke:none"
           transform="matrix(1,0,0,-1,0,3)"><tspan
             id="tspan128"
             y="0"
             x="0 5.8400002 11.402 16.964001 21.788">~1911</tspan></text>
</g><path
         id="path132"
         style="fill:#ffc0a9;fill-opacity:1;fill-rule:nonzero;stroke:none"
         d="m 0.25,852.1368 h 200 c 0,0 0,0 0,0 v -57 c 0,0 0,0 0,0 h -200 c 0,0 0,0 0,0 v 57 c 0,0 0,0 0,0 z" /><g
         transform="matrix(1,0,0,-1,0.25,852.1368)"
         id="g134"><path
           id="path136"
           style="fill:none;stroke:#000000;stroke-width:0.5;stroke-linecap:butt;stroke-linejoin:miter;stroke-miterlimit:10;stroke-dasharray:none;stroke-opacity:1"
           d="m 0,0 h 200 c 0,0 0,0 0,0 v 57 c 0,0 0,0 0,0 H 0 c 0,0 0,0 0,0 V 0 c 0,0 0,0 0,0 z" /></g><g
         transform="translate(10.25,824.1368)"
         id="g138"><text
           id="text142"
           style="font-variant:normal;font-weight:bold;font-size:14px;font-family:Helvetica;-inkscape-font-specification:Helvetica-Bold;writing-mode:lr-tb;fill:#000000;fill-opacity:1;fill-rule:nonzero;stroke:none"
           transform="matrix(1,0,0,-1,46.04834,4)"><tspan
             id="tspan140"
             y="0"
             x="0 8.5511999 12.4404 20.9916 28.7784 34.2272 42.014 45.903198 57.565201 65.351997 70.800797 74.690002 83.241203">Libera Mariot</tspan></text>
</g><g
         transform="translate(10.25,805.1368)"
         id="g144"><text
           id="text148"
           style="font-variant:normal;font-weight:bold;font-size:10px;font-family:Helvetica;-inkscape-font-specification:Helvetica-Bold;writing-mode:lr-tb;fill:#5f463c;fill-opacity:1;fill-rule:nonzero;stroke:none"
           transform="matrix(1,0,0,-1,0,3)"><tspan
             id="tspan146"
             y="0"
             x="0 7.2220001 12.784 18.346001 23.908001 26.686001 35.577999 41.139999 47.248001 50.577999">Nascimento</tspan></text>
</g><g
         transform="translate(140.2012,805.1368)"
         id="g150"><text
           id="text154"
           style="font-variant:normal;font-weight:normal;font-size:10px;font-family:Helvetica;-inkscape-font-specification:Helvetica;writing-mode:lr-tb;fill:#5f463c;fill-opacity:1;fill-rule:nonzero;stroke:none"
           transform="matrix(1,0,0,-1,0,3)"><tspan
             id="tspan152"
             y="0"
             x="0 5.5619998 11.124 13.906 19.468 25.030001 27.812 33.374001 38.936001 44.498001">12/04/1891</tspan></text>
</g><path
         id="path156"
         style="fill:#ffc0a9;fill-opacity:1;fill-rule:nonzero;stroke:none"
         d="m 0.25,217.5634 h 200 c 0,0 0,0 0,0 v -57 c 0,0 0,0 0,0 h -200 c 0,0 0,0 0,0 v 57 c 0,0 0,0 0,0 z" /><g
         transform="matrix(1,0,0,-1,0.25,217.5634)"
         id="g158"><path
           id="path160"
           style="fill:none;stroke:#000000;stroke-width:0.5;stroke-linecap:butt;stroke-linejoin:miter;stroke-miterlimit:10;stroke-dasharray:none;stroke-opacity:1"
           d="m 0,0 h 200 c 0,0 0,0 0,0 v 57 c 0,0 0,0 0,0 H 0 c 0,0 0,0 0,0 V 0 c 0,0 0,0 0,0 z" /></g><g
         transform="translate(10.25,189.5634)"
         id="g162"><text
           id="text166"
           style="font-variant:normal;font-weight:bold;font-size:14px;font-family:Helvetica;-inkscape-font-specification:Helvetica-Bold;writing-mode:lr-tb;fill:#000000;fill-opacity:1;fill-rule:nonzero;stroke:none"
           transform="matrix(1,0,0,-1,36.31738,4)"><tspan
             id="tspan164"
             y="0"
             x="0 8.5721998 16.358999 20.248199 28.035 36.586201 41.248199 45.137402 53.688599 61.475399 65.364601 77.026604 84.8134 90.262199 94.151398 102.7026">Valentina Mariot</tspan></text>
</g><g
         transform="translate(10.25,170.5634)"
         id="g168"><text
           id="text172"
           style="font-variant:normal;font-weight:bold;font-size:10px;font-family:Helvetica;-inkscape-font-specification:Helvetica-Bold;writing-mode:lr-tb;fill:#5f463c;fill-opacity:1;fill-rule:nonzero;stroke:none"
           transform="matrix(1,0,0,-1,0,3)"><tspan
             id="tspan170"
             y="0"
             x="0 7.2220001 12.784 18.346001 23.908001 26.686001 35.577999 41.139999 47.248001 50.577999">Nascimento</tspan></text>
</g><g
         transform="translate(162.1641,170.5634)"
         id="g174"><text
           id="text178"
           style="font-variant:normal;font-weight:normal;font-size:10px;font-family:Helvetica;-inkscape-font-specification:Helvetica;writing-mode:lr-tb;fill:#5f463c;fill-opacity:1;fill-rule:nonzero;stroke:none"
           transform="matrix(1,0,0,-1,0,3)"><tspan
             id="tspan176"
             y="0"
             x="0 5.8400002 11.402 16.964001 22.525999">~1907</tspan></text>
</g><path
         id="path180"
         style="fill:#a9c2ff;fill-opacity:1;fill-rule:nonzero;stroke:none"
         d="m 0.25,539.0825 h 200 c 0,0 0,0 0,0 v -57 c 0,0 0,0 0,0 h -200 c 0,0 0,0 0,0 v 57 c 0,0 0,0 0,0 z" /><g
         transform="matrix(1,0,0,-1,0.25,539.0825)"
         id="g182"><path
           id="path184"
           style="fill:none;stroke:#000000;stroke-width:0.5;stroke-linecap:butt;stroke-linejoin:miter;stroke-miterlimit:10;stroke-dasharray:none;stroke-opacity:1"
           d="m 0,0 h 200 c 0,0 0,0 0,0 v 57 c 0,0 0,0 0,0 H 0 c 0,0 0,0 0,0 V 0 c 0,0 0,0 0,0 z" /></g><g
         transform="translate(10.25,511.0825)"
         id="g186"><text
           id="text190"
           style="font-variant:normal;font-weight:bold;font-size:14px;font-family:Helvetica;-inkscape-font-specification:Helvetica-Bold;writing-mode:lr-tb;fill:#000000;fill-opacity:1;fill-rule:nonzero;stroke:none"
           transform="matrix(1,0,0,-1,34.38623,4)"><tspan
             id="tspan188"
             y="0"
             x="0 11.662 19.448799 28 35.7868 44.338001 52.124802 56.7868 65.337997 69.227203 80.889198 88.676003 94.124802 98.014 106.5652">Mansueto Mariot</tspan></text>
</g><g
         transform="translate(10.25,492.0825)"
         id="g192"><text
           id="text196"
           style="font-variant:normal;font-weight:bold;font-size:10px;font-family:Helvetica;-inkscape-font-specification:Helvetica-Bold;writing-mode:lr-tb;fill:#3c475f;fill-opacity:1;fill-rule:nonzero;stroke:none"
           transform="matrix(1,0,0,-1,0,3)"><tspan
             id="tspan194"
             y="0"
             x="0 7.2220001 12.784 18.346001 23.908001 26.686001 35.577999 41.139999 47.248001 50.577999">Nascimento</tspan></text>
</g><g
         transform="translate(140.2012,492.0825)"
         id="g198"><text
           id="text202"
           style="font-variant:normal;font-weight:normal;font-size:10px;font-family:Helvetica;-inkscape-font-specification:Helvetica;writing-mode:lr-tb;fill:#3c475f;fill-opacity:1;fill-rule:nonzero;stroke:none"
           transform="matrix(1,0,0,-1,0,3)"><tspan
             id="tspan200"
             y="0"
             x="0 5.5619998 11.124 13.906 19.468 25.030001 27.812 33.374001 38.936001 44.498001">08/02/1900</tspan></text>
</g><path
         id="path204"
         style="fill:#ffc0a9;fill-opacity:1;fill-rule:nonzero;stroke:none"
         d="m 264.7905,399.2026 h 200 c 0,0 0,0 0,0 v -57 c 0,0 0,0 0,0 h -200 c 0,0 0,0 0,0 v 57 c 0,0 0,0 0,0 z" /><g
         transform="matrix(1,0,0,-1,264.7905,399.2026)"
         id="g206"><path
           id="path208"
           style="fill:none;stroke:#000000;stroke-width:0.5;stroke-linecap:butt;stroke-linejoin:miter;stroke-miterlimit:10;stroke-dasharray:none;stroke-opacity:1"
           d="m 0,0 h 200 c 0,0 0,0 0,0 v 57 c 0,0 0,0 0,0 H 0 c 0,0 0,0 0,0 V 0 c 0,0 0,0 0,0 z" /></g><g
         transform="translate(274.7905,371.2026)"
         id="g210"><text
           id="text214"
           style="font-variant:normal;font-weight:bold;font-size:14px;font-family:Helvetica;-inkscape-font-specification:Helvetica-Bold;writing-mode:lr-tb;fill:#000000;fill-opacity:1;fill-rule:nonzero;stroke:none"
           transform="matrix(1,0,0,-1,28.15186,4)"><tspan
             id="tspan212"
             y="0"
             x="0 10.8892 14.7784 23.329599 31.1108 38.891998 47.443199 55.9944 63.7756 67.664803 77.769997 86.321198 91.764397 100.3156 108.0968 111.986 115.8752">Giovanna Cordella</tspan></text>
</g><g
         transform="translate(274.7905,352.2026)"
         id="g216"><text
           id="text220"
           style="font-variant:normal;font-weight:bold;font-size:10px;font-family:Helvetica;-inkscape-font-specification:Helvetica-Bold;writing-mode:lr-tb;fill:#5f463c;fill-opacity:1;fill-rule:nonzero;stroke:none"
           transform="matrix(1,0,0,-1,0,3)"><tspan
             id="tspan218"
             y="0"
             x="0 7.2220001 12.784 18.346001 23.908001 26.686001 35.577999 41.139999 47.248001 50.577999">Nascimento</tspan></text>
</g><g
         transform="translate(426.7045,352.2026)"
         id="g222"><text
           id="text226"
           style="font-variant:normal;font-weight:normal;font-size:10px;font-family:Helvetica;-inkscape-font-specification:Helvetica;writing-mode:lr-tb;fill:#5f463c;fill-opacity:1;fill-rule:nonzero;stroke:none"
           transform="matrix(1,0,0,-1,0,3)"><tspan
             id="tspan224"
             y="0"
             x="0 5.8400002 11.402 16.964001 22.525999">~1872</tspan></text>
</g><path
         id="path228"
         style="fill:#a9c2ff;fill-opacity:1;fill-rule:nonzero;stroke:none"
         d="m 0.25,378.7307 h 200 c 0,0 0,0 0,0 v -57 c 0,0 0,0 0,0 h -200 c 0,0 0,0 0,0 v 57 c 0,0 0,0 0,0 z" /><g
         transform="matrix(1,0,0,-1,0.25,378.7307)"
         id="g230"><path
           id="path232"
           style="fill:none;stroke:#000000;stroke-width:0.5;stroke-linecap:butt;stroke-linejoin:miter;stroke-miterlimit:10;stroke-dasharray:none;stroke-opacity:1"
           d="m 0,0 h 200 c 0,0 0,0 0,0 v 57 c 0,0 0,0 0,0 H 0 c 0,0 0,0 0,0 V 0 c 0,0 0,0 0,0 z" /></g><g
         transform="translate(10.25,350.7307)"
         id="g234"><text
           id="text238"
           style="font-variant:normal;font-weight:bold;font-size:14px;font-family:Helvetica;-inkscape-font-specification:Helvetica-Bold;writing-mode:lr-tb;fill:#000000;fill-opacity:1;fill-rule:nonzero;stroke:none"
           transform="matrix(1,0,0,-1,47.21729,4)"><tspan
             id="tspan236"
             y="0"
             x="0 9.3380003 13.2272 21.014 25.676001 31.1248 39.675999 43.565201 55.2272 63.014 68.462799 72.351997 80.903198">Pietro Mariot</tspan></text>
</g><g
         transform="translate(10.25,331.7307)"
         id="g240"><text
           id="text244"
           style="font-variant:normal;font-weight:bold;font-size:10px;font-family:Helvetica;-inkscape-font-specification:Helvetica-Bold;writing-mode:lr-tb;fill:#3c475f;fill-opacity:1;fill-rule:nonzero;stroke:none"
           transform="matrix(1,0,0,-1,0,3)"><tspan
             id="tspan242"
             y="0"
             x="0 7.2220001 12.784 18.346001 23.908001 26.686001 35.577999 41.139999 47.248001 50.577999">Nascimento</tspan></text>
</g><g
         transform="translate(140.2012,331.7307)"
         id="g246"><text
           id="text250"
           style="font-variant:normal;font-weight:normal;font-size:10px;font-family:Helvetica;-inkscape-font-specification:Helvetica;writing-mode:lr-tb;fill:#3c475f;fill-opacity:1;fill-rule:nonzero;stroke:none"
           transform="matrix(1,0,0,-1,0,3)"><tspan
             id="tspan248"
             y="0"
             x="0 5.5619998 11.124 13.906 19.468 25.030001 27.812 33.374001 38.936001 44.498001">16/02/1902</tspan></text>
</g><path
         id="path252"
         style="fill:#ffc0a9;fill-opacity:1;fill-rule:nonzero;stroke:none"
         d="m 265.15,842.6368 h 200 c 0,0 0,0 0,0 v -38 c 0,0 0,0 0,0 h -200 c 0,0 0,0 0,0 v 38 c 0,0 0,0 0,0 z" /><g
         transform="matrix(1,0,0,-1,265.15,842.6368)"
         id="g254"><path
           id="path256"
           style="fill:none;stroke:#000000;stroke-width:0.5;stroke-linecap:butt;stroke-linejoin:miter;stroke-miterlimit:10;stroke-dasharray:none;stroke-opacity:1"
           d="m 0,0 h 200 c 0,0 0,0 0,0 v 38 c 0,0 0,0 0,0 H 0 c 0,0 0,0 0,0 V 0 c 0,0 0,0 0,0 z" /></g><g
         transform="translate(275.15,814.6368)"
         id="g258"><text
           id="text262"
           style="font-variant:normal;font-weight:bold;font-size:14px;font-family:Helvetica;-inkscape-font-specification:Helvetica-Bold;writing-mode:lr-tb;fill:#000000;fill-opacity:1;fill-rule:nonzero;stroke:none"
           transform="matrix(1,0,0,-1,44.60596,4)"><tspan
             id="tspan260"
             y="0"
             x="0 7.5194001 15.3048 20.752199 28.5376 36.323002 44.108398 48.001801 58.111198 66.666603 74.452003 82.237396">Teresa Rosso</tspan></text>
</g><path
         id="path264"
         style="fill:#a9c2ff;fill-opacity:1;fill-rule:nonzero;stroke:none"
         d="m 265.15,1028.437 h 200 c 0,0 0,0 0,0 V 911.4368 c 0,0 0,0 0,0 h -200 c 0,0 0,0 0,0 v 117.0002 c 0,0 0,0 0,0 z" /><g
         transform="matrix(1,0,0,-1,265.15,1028.437)"
         id="g266"><path
           id="path268"
           style="fill:none;stroke:#000000;stroke-width:1;stroke-linecap:butt;stroke-linejoin:miter;stroke-miterlimit:10;stroke-dasharray:none;stroke-opacity:1"
           d="m 0,0 h 200 c 0,0 0,0 0,0 v 117 c 0,0 0,0 0,0 H 0 c 0,0 0,0 0,0 V 0 c 0,0 0,0 0,0 z" /></g><g
         transform="translate(275.15,1000.437)"
         id="g270"><text
           id="text274"
           style="font-variant:normal;font-weight:bold;font-size:14px;font-family:Helvetica;-inkscape-font-specification:Helvetica-Bold;writing-mode:lr-tb;fill:#000000;fill-opacity:1;fill-rule:nonzero;stroke:none"
           transform="matrix(1,0,0,-1,43.32764,4)"><tspan
             id="tspan272"
             y="0"
             x="0 10.8892 14.7784 23.329599 31.1164 39.667599 47.454399 51.343601 63.0056 70.792397 76.241203 80.130402 88.681602">Giosuè Mariot</tspan></text>
</g><g
         transform="translate(275.15,981.4368)"
         id="g276"><text
           id="text280"
           style="font-variant:normal;font-weight:bold;font-size:10px;font-family:Helvetica;-inkscape-font-specification:Helvetica-Bold;writing-mode:lr-tb;fill:#3c475f;fill-opacity:1;fill-rule:nonzero;stroke:none"
           transform="matrix(1,0,0,-1,0,3)"><tspan
             id="tspan278"
             y="0"
             x="0 7.2220001 12.784 18.346001 23.908001 26.686001 35.577999 41.139999 47.248001 50.577999">Nascimento</tspan></text>
</g><g
         transform="translate(405.1012,981.4368)"
         id="g282"><text
           id="text286"
           style="font-variant:normal;font-weight:normal;font-size:10px;font-family:Helvetica;-inkscape-font-specification:Helvetica;writing-mode:lr-tb;fill:#3c475f;fill-opacity:1;fill-rule:nonzero;stroke:none"
           transform="matrix(1,0,0,-1,0,3)"><tspan
             id="tspan284"
             y="0"
             x="0 5.5619998 11.124 13.906 19.468 25.030001 27.812 33.374001 38.936001 44.498001">17/01/1857</tspan></text>
</g><g
         transform="translate(275.15,964.4368)"
         id="g288"><text
           id="text292"
           style="font-variant:normal;font-weight:bold;font-size:10px;font-family:Helvetica;-inkscape-font-specification:Helvetica-Bold;writing-mode:lr-tb;fill:#3c475f;fill-opacity:1;fill-rule:nonzero;stroke:none"
           transform="matrix(1,0,0,-1,0,3)"><tspan
             id="tspan290"
             y="0"
             x="0 7.2220001 12.784 18.346001 23.908001 32.799999 38.362 44.470001 47.799999">Casamento</tspan></text>
</g><g
         transform="translate(405.1012,964.4368)"
         id="g294"><text
           id="text298"
           style="font-variant:normal;font-weight:normal;font-size:10px;font-family:Helvetica;-inkscape-font-specification:Helvetica;writing-mode:lr-tb;fill:#3c475f;fill-opacity:1;fill-rule:nonzero;stroke:none"
           transform="matrix(1,0,0,-1,0,3)"><tspan
             id="tspan296"
             y="0"
             x="0 5.5619998 11.124 13.906 19.468 25.030001 27.812 33.374001 38.936001 44.498001">29/07/1889</tspan></text>
</g><g
         transform="translate(275.15,951.4368)"
         id="g300"><text
           id="text304"
           style="font-variant:normal;font-weight:normal;font-size:10px;font-family:Helvetica;-inkscape-font-specification:Helvetica;writing-mode:lr-tb;fill:#3c475f;fill-opacity:1;fill-rule:nonzero;stroke:none"
           transform="matrix(1,0,0,-1,118.8623,3)"><tspan
             id="tspan302"
             y="0"
             x="0 5 10.562 13.892 19.454 24.454 30.016001 32.793999 40.015999 45.577999 50.577999 55.577999">Teresa Rosso</tspan></text>
</g><g
         transform="translate(275.15,934.4368)"
         id="g306"><text
           id="text310"
           style="font-variant:normal;font-weight:bold;font-size:10px;font-family:Helvetica;-inkscape-font-specification:Helvetica-Bold;writing-mode:lr-tb;fill:#3c475f;fill-opacity:1;fill-rule:nonzero;stroke:none"
           transform="matrix(1,0,0,-1,0,3)"><tspan
             id="tspan308"
             y="0"
             x="0 7.2220001 12.784 18.346001 23.908001 32.799999 38.362 44.470001 47.799999">Casamento</tspan></text>
</g><g
         transform="translate(405.1012,934.4368)"
         id="g312"><text
           id="text316"
           style="font-variant:normal;font-weight:normal;font-size:10px;font-family:Helvetica;-inkscape-font-specification:Helvetica;writing-mode:lr-tb;fill:#3c475f;fill-opacity:1;fill-rule:nonzero;stroke:none"
           transform="matrix(1,0,0,-1,0,3)"><tspan
             id="tspan314"
             y="0"
             x="0 5.5619998 11.124 13.906 19.468 25.030001 27.812 33.374001 38.936001 44.498001">14/08/1893</tspan></text>
</g><g
         transform="translate(275.15,921.4368)"
         id="g318"><text
           id="text322"
           style="font-variant:normal;font-weight:normal;font-size:10px;font-family:Helvetica;-inkscape-font-specification:Helvetica;writing-mode:lr-tb;fill:#3c475f;fill-opacity:1;fill-rule:nonzero;stroke:none"
           transform="matrix(1,0,0,-1,97.17285,3)"><tspan
             id="tspan320"
             y="0"
             x="0 7.7779999 10 15.562 20.562 26.124001 31.686001 37.248001 42.810001 45.588001 52.810001 58.372002 61.702 67.264 72.825996 75.047997 77.269997">Giovanna Cordella</tspan></text>
</g><path
         id="path324"
         style="fill:#ffc0a9;fill-opacity:1;fill-rule:nonzero;stroke:none"
         d="m 0.25,998.4368 h 200 c 0,0 0,0 0,0 v -57 c 0,0 0,0 0,0 h -200 c 0,0 0,0 0,0 v 57 c 0,0 0,0 0,0 z" /><g
         transform="matrix(1,0,0,-1,0.25,998.4368)"
         id="g326"><path
           id="path328"
           style="fill:none;stroke:#000000;stroke-width:0.5;stroke-linecap:butt;stroke-linejoin:miter;stroke-miterlimit:10;stroke-dasharray:none;stroke-opacity:1"
           d="m 0,0 h 200 c 0,0 0,0 0,0 v 57 c 0,0 0,0 0,0 H 0 c 0,0 0,0 0,0 V 0 c 0,0 0,0 0,0 z" /></g><g
         transform="translate(10.25,970.4368)"
         id="g330"><text
           id="text334"
           style="font-variant:normal;font-weight:bold;font-size:14px;font-family:Helvetica;-inkscape-font-specification:Helvetica-Bold;writing-mode:lr-tb;fill:#000000;fill-opacity:1;fill-rule:nonzero;stroke:none"
           transform="matrix(1,0,0,-1,49.55518,4)"><tspan
             id="tspan332"
             y="0"
             x="0 10.1108 18.662001 27.2132 35 38.889198 50.551201 58.338001 63.7868 67.676003 76.227203">Anna Mariot</tspan></text>
</g><g
         transform="translate(10.25,951.4368)"
         id="g336"><text
           id="text340"
           style="font-variant:normal;font-weight:bold;font-size:10px;font-family:Helvetica;-inkscape-font-specification:Helvetica-Bold;writing-mode:lr-tb;fill:#5f463c;fill-opacity:1;fill-rule:nonzero;stroke:none"
           transform="matrix(1,0,0,-1,0,3)"><tspan
             id="tspan338"
             y="0"
             x="0 7.2220001 12.784 18.346001 23.908001 26.686001 35.577999 41.139999 47.248001 50.577999">Nascimento</tspan></text>
</g><g
         transform="translate(162.1641,951.4368)"
         id="g342"><text
           id="text346"
           style="font-variant:normal;font-weight:normal;font-size:10px;font-family:Helvetica;-inkscape-font-specification:Helvetica;writing-mode:lr-tb;fill:#5f463c;fill-opacity:1;fill-rule:nonzero;stroke:none"
           transform="matrix(1,0,0,-1,0,3)"><tspan
             id="tspan344"
             y="0"
             x="0 5.8400002 11.402 16.964001 22.525999">~1887</tspan></text>
</g><path
         id="path348"
         style="fill:#ffc0a9;fill-opacity:1;fill-rule:nonzero;stroke:none"
         d="m 0.25,137.4039 h 200 c 0,0 0,0 0,0 V 80.40391 c 0,0 0,0 0,0 h -200 c 0,0 0,0 0,0 v 56.99999 c 0,0 0,0 0,0 z" /><g
         transform="matrix(1,0,0,-1,0.25,137.4039)"
         id="g350"><path
           id="path352"
           style="fill:none;stroke:#000000;stroke-width:0.5;stroke-linecap:butt;stroke-linejoin:miter;stroke-miterlimit:10;stroke-dasharray:none;stroke-opacity:1"
           d="m 0,0 h 200 c 0,0 0,0 0,0 v 57 c 0,0 0,0 0,0 H 0 c 0,0 0,0 0,0 V 0 c 0,0 0,0 0,0 z" /></g><g
         transform="translate(10.25,109.4039)"
         id="g354"><text
           id="text358"
           style="font-variant:normal;font-weight:bold;font-size:14px;font-family:Helvetica;-inkscape-font-specification:Helvetica-Bold;writing-mode:lr-tb;fill:#000000;fill-opacity:1;fill-rule:nonzero;stroke:none"
           transform="matrix(1,0,0,-1,28.93799,4)"><tspan
             id="tspan356"
             y="0"
             x="0 10.8892 14.7784 23.329599 31.1164 38.903198 47.454399 56.0056 59.894798 68.445999 76.232803 80.122002 91.783997 99.570801 105.0196 108.9088 117.46">Giuseppina Mariot</tspan></text>
</g><g
         transform="translate(10.25,90.40391)"
         id="g360"><text
           id="text364"
           style="font-variant:normal;font-weight:bold;font-size:10px;font-family:Helvetica;-inkscape-font-specification:Helvetica-Bold;writing-mode:lr-tb;fill:#5f463c;fill-opacity:1;fill-rule:nonzero;stroke:none"
           transform="matrix(1,0,0,-1,0,3)"><tspan
             id="tspan362"
             y="0"
             x="0 7.2220001 12.784 18.346001 23.908001 26.686001 35.577999 41.139999 47.248001 50.577999">Nascimento</tspan></text>
</g><g
         transform="translate(162.1641,90.40391)"
         id="g366"><text
           id="text370"
           style="font-variant:normal;font-weight:normal;font-size:10px;font-family:Helvetica;-inkscape-font-specification:Helvetica;writing-mode:lr-tb;fill:#5f463c;fill-opacity:1;fill-rule:nonzero;stroke:none"
           transform="matrix(1,0,0,-1,0,3)"><tspan
             id="tspan368"
             y="0"
             x="0 5.8400002 11.402 16.964001 22.525999">~1909</tspan></text>
</g><path
         id="path372"
         style="fill:#a9c2ff;fill-opacity:1;fill-rule:nonzero;stroke:none"
         d="m 0.25,458.5307 h 200 c 0,0 0,0 0,0 v -57 c 0,0 0,0 0,0 h -200 c 0,0 0,0 0,0 v 57 c 0,0 0,0 0,0 z" /><g
         transform="matrix(1,0,0,-1,0.25,458.5307)"
         id="g374"><path
           id="path376"
           style="fill:none;stroke:#000000;stroke-width:0.5;stroke-linecap:butt;stroke-linejoin:miter;stroke-miterlimit:10;stroke-dasharray:none;stroke-opacity:1"
           d="m 0,0 h 200 c 0,0 0,0 0,0 v 57 c 0,0 0,0 0,0 H 0 c 0,0 0,0 0,0 V 0 c 0,0 0,0 0,0 z" /></g><g
         transform="translate(10.25,430.5307)"
         id="g378"><text
           id="text382"
           style="font-variant:normal;font-weight:bold;font-size:14px;font-family:Helvetica;-inkscape-font-specification:Helvetica-Bold;writing-mode:lr-tb;fill:#000000;fill-opacity:1;fill-rule:nonzero;stroke:none"
           transform="matrix(1,0,0,-1,48.38623,4)"><tspan
             id="tspan380"
             y="0"
             x="0 11.662 19.448799 24.8976 28.7868 37.338001 41.2272 52.889198 60.675999 66.124802 70.014 78.565201">Mario Mariot</tspan></text>
</g><g
         transform="translate(10.25,411.5307)"
         id="g384"><text
           id="text388"
           style="font-variant:normal;font-weight:bold;font-size:10px;font-family:Helvetica;-inkscape-font-specification:Helvetica-Bold;writing-mode:lr-tb;fill:#3c475f;fill-opacity:1;fill-rule:nonzero;stroke:none"
           transform="matrix(1,0,0,-1,0,3)"><tspan
             id="tspan386"
             y="0"
             x="0 7.2220001 12.784 18.346001 23.908001 26.686001 35.577999 41.139999 47.248001 50.577999">Nascimento</tspan></text>
</g><g
         transform="translate(162.1641,411.5307)"
         id="g390"><text
           id="text394"
           style="font-variant:normal;font-weight:normal;font-size:10px;font-family:Helvetica;-inkscape-font-specification:Helvetica;writing-mode:lr-tb;fill:#3c475f;fill-opacity:1;fill-rule:nonzero;stroke:none"
           transform="matrix(1,0,0,-1,0,3)"><tspan
             id="tspan392"
             y="0"
             x="0 5.8400002 11.402 16.964001 22.525999">~1901</tspan></text>
</g></g></g></svg>