<?xml version="1.0" encoding="UTF-8" standalone="no"?>
<svg
   xmlns:dc="http://purl.org/dc/elements/1.1/"
   xmlns:cc="http://creativecommons.org/ns#"
   xmlns:rdf="http://www.w3.org/1999/02/22-rdf-syntax-ns#"
   xmlns:svg="http://www.w3.org/2000/svg"
   xmlns="http://www.w3.org/2000/svg"
   viewBox="0 0 981.32678 1221.3693"
   height="1221.3693"
   width="981.32678"
   xml:space="preserve"
   id="svg2"
   version="1.1"><metadata
     id="metadata8"><rdf:RDF><cc:Work
         rdf:about=""><dc:format>image/svg+xml</dc:format><dc:type
           rdf:resource="http://purl.org/dc/dcmitype/StillImage" /></cc:Work></rdf:RDF></metadata><defs
     id="defs6" /><g
     transform="matrix(1.3333333,0,0,-1.3333333,0,1221.3693)"
     id="g10"><g
       id="g12" /><g
       id="g14"><g
         transform="matrix(1,0,0,-1,635.4951,415.183)"
         id="g16"><path
           id="path18"
           style="fill:none;stroke:#000000;stroke-width:2.20000005;stroke-linecap:round;stroke-linejoin:miter;stroke-miterlimit:10;stroke-dasharray:none;stroke-opacity:1"
           d="M 0,0 V 11.40002 M 0,22.80005 V 11.40002" /></g><g
         transform="matrix(1,0,0,-1,466.8122,624.0874)"
         id="g20"><path
           id="path22"
           style="fill:none;stroke:#000000;stroke-width:2.20000005;stroke-linecap:round;stroke-linejoin:miter;stroke-miterlimit:10;stroke-dasharray:none;stroke-opacity:1"
           d="M 34.34146,476.7007 V 0 M 0,1.281046e-4 H 34.34146 M 0,274.0025 H 34.34146 M 0,476.7006 H 34.34146 M 68.68291,260.2045 H 34.34146" /></g><g
         transform="matrix(1,0,0,-1,366.8122,580.5873)"
         id="g24"><path
           id="path26"
           style="fill:none;stroke:#000000;stroke-width:2.20000005;stroke-linecap:round;stroke-linejoin:miter;stroke-miterlimit:10;stroke-dasharray:none;stroke-opacity:1"
           d="m 0,0 v 11.39999 m 0,11.4 v -11.4" /></g><g
         transform="matrix(1,0,0,-1,200.25,178.8501)"
         id="g28"><path
           id="path30"
           style="fill:none;stroke:#000000;stroke-width:2.20000005;stroke-linecap:round;stroke-linejoin:miter;stroke-miterlimit:10;stroke-dasharray:none;stroke-opacity:1"
           d="M 33.28108,150.1001 V 0 M 0,8.000334e-5 H 33.28108 M 0,150.1001 H 33.28108 M 0,70.30001 H 33.28108 M 66.56215,111.2632 H 33.28108" /></g><g
         transform="matrix(1,0,0,-1,366.8122,118.8868)"
         id="g32"><path
           id="path34"
           style="fill:none;stroke:#000000;stroke-width:2.20000005;stroke-linecap:round;stroke-linejoin:miter;stroke-miterlimit:10;stroke-dasharray:none;stroke-opacity:1"
           d="M 0,0 V 11.39996 M 0,22.79993 V 11.39996" /></g><g
         transform="matrix(1,0,0,-1,200.25,887.2771)"
         id="g36"><path
           id="path38"
           style="fill:none;stroke:#000000;stroke-width:2.20000005;stroke-linecap:round;stroke-linejoin:miter;stroke-miterlimit:10;stroke-dasharray:none;stroke-opacity:1"
           d="M 33.28108,628.1985 V 0 M 0,76.95934 H 33.28108 M 0,471.6273 H 33.28108 M 0,9.383909e-5 H 33.28108 M 0,391.8273 H 33.28108 M 0,628.1984 H 33.28108 M 0,551.4273 H 33.28108 M 0,236.5593 H 33.28108 M 0,312.0273 H 33.28108 M 0,156.7593 H 33.28108 M 66.56215,372.9897 H 33.28108" /></g><path
         id="path40"
         style="fill:#a9c2ff;fill-opacity:1;fill-rule:nonzero;stroke:none"
         d="m 0.25,197.85 h 200 c 0,0 0,0 0,0 v -38 c 0,0 0,0 0,0 h -200 c 0,0 0,0 0,0 v 38 c 0,0 0,0 0,0 z" /><g
         transform="matrix(1,0,0,-1,0.25,197.85)"
         id="g42"><path
           id="path44"
           style="fill:none;stroke:#000000;stroke-width:0.5;stroke-linecap:butt;stroke-linejoin:miter;stroke-miterlimit:10;stroke-dasharray:none;stroke-opacity:1"
           d="m 0,0 h 200 c 0,0 0,0 0,0 v 38 c 0,0 0,0 0,0 H 0 c 0,0 0,0 0,0 V 0 c 0,0 0,0 0,0 z" /></g><g
         transform="translate(10.25,169.85)"
         id="g46"><text
           id="text50"
           style="font-variant:normal;font-weight:bold;font-size:14px;font-family:Helvetica;-inkscape-font-specification:Helvetica-Bold;writing-mode:lr-tb;fill:#000000;fill-opacity:1;fill-rule:nonzero;stroke:none"
           transform="matrix(1,0,0,-1,41.37939,4)"><tspan
             id="tspan48"
             y="0"
             x="0 11.662 15.5512 23.337999 31.8892 39.675999 43.565201 51.352001 55.241199 66.903198 74.690002 80.138802 84.028 92.579201">Michele Mariot</tspan></text>
</g><path
         id="path52"
         style="fill:#ffc0a9;fill-opacity:1;fill-rule:nonzero;stroke:none"
         d="m 0.25,444.1497 h 200 c 0,0 0,0 0,0 v -57 c 0,0 0,0 0,0 h -200 c 0,0 0,0 0,0 v 57 c 0,0 0,0 0,0 z" /><g
         transform="matrix(1,0,0,-1,0.25,444.1497)"
         id="g54"><path
           id="path56"
           style="fill:none;stroke:#000000;stroke-width:0.5;stroke-linecap:butt;stroke-linejoin:miter;stroke-miterlimit:10;stroke-dasharray:none;stroke-opacity:1"
           d="m 0,0 h 200 c 0,0 0,0 0,0 v 57 c 0,0 0,0 0,0 H 0 c 0,0 0,0 0,0 V 0 c 0,0 0,0 0,0 z" /></g><g
         transform="translate(10.25,416.1497)"
         id="g58"><text
           id="text62"
           style="font-variant:normal;font-weight:bold;font-size:14px;font-family:Helvetica;-inkscape-font-specification:Helvetica-Bold;writing-mode:lr-tb;fill:#000000;fill-opacity:1;fill-rule:nonzero;stroke:none"
           transform="matrix(1,0,0,-1,36.31738,4)"><tspan
             id="tspan60"
             y="0"
             x="0 8.5721998 16.358999 20.248199 28.035 36.586201 41.248199 45.137402 53.688599 61.475399 65.364601 77.026604 84.8134 90.262199 94.151398 102.7026">Valentina Mariot</tspan></text>
</g><g
         transform="translate(10.25,397.1497)"
         id="g64"><text
           id="text68"
           style="font-variant:normal;font-weight:bold;font-size:10px;font-family:Helvetica;-inkscape-font-specification:Helvetica-Bold;writing-mode:lr-tb;fill:#5f463c;fill-opacity:1;fill-rule:nonzero;stroke:none"
           transform="matrix(1,0,0,-1,0,3)"><tspan
             id="tspan66"
             y="0"
             x="0 7.2220001 12.784 18.346001 23.908001 26.686001 35.577999 41.139999 47.248001 50.577999">Nascimento</tspan></text>
</g><g
         transform="translate(140.2012,397.1497)"
         id="g70"><text
           id="text74"
           style="font-variant:normal;font-weight:normal;font-size:10px;font-family:Helvetica;-inkscape-font-specification:Helvetica;writing-mode:lr-tb;fill:#5f463c;fill-opacity:1;fill-rule:nonzero;stroke:none"
           transform="matrix(1,0,0,-1,0,3)"><tspan
             id="tspan72"
             y="0"
             x="0 5.5619998 11.124 13.906 19.468 25.030001 27.812 33.374001 38.936001 44.498001">18/10/1865</tspan></text>
</g><path
         id="path76"
         style="fill:#ffc0a9;fill-opacity:1;fill-rule:nonzero;stroke:none"
         d="m 266.8122,378.5849 h 200 c 0,0 0,0 0,0 v -57 c 0,0 0,0 0,0 h -200 c 0,0 0,0 0,0 v 57 c 0,0 0,0 0,0 z" /><g
         transform="matrix(1,0,0,-1,266.8122,378.5849)"
         id="g78"><path
           id="path80"
           style="fill:none;stroke:#000000;stroke-width:0.5;stroke-linecap:butt;stroke-linejoin:miter;stroke-miterlimit:10;stroke-dasharray:none;stroke-opacity:1"
           d="m 0,0 h 200 c 0,0 0,0 0,0 v 57 c 0,0 0,0 0,0 H 0 c 0,0 0,0 0,0 V 0 c 0,0 0,0 0,0 z" /></g><g
         transform="translate(276.8122,350.5849)"
         id="g82"><text
           id="text86"
           style="font-variant:normal;font-weight:bold;font-size:14px;font-family:Helvetica;-inkscape-font-specification:Helvetica-Bold;writing-mode:lr-tb;fill:#000000;fill-opacity:1;fill-rule:nonzero;stroke:none"
           transform="matrix(1,0,0,-1,31.26904,4)"><tspan
             id="tspan84"
             y="0"
             x="0 11.662 19.448799 24.8976 33.448799 42 49.7868 55.2356 59.124802 63.7868 71.573601 75.462799 87.124802 94.911598 100.3604 104.2496 112.8008">Margherita Mariot</tspan></text>
</g><g
         transform="translate(276.8122,331.5849)"
         id="g88"><text
           id="text92"
           style="font-variant:normal;font-weight:bold;font-size:10px;font-family:Helvetica;-inkscape-font-specification:Helvetica-Bold;writing-mode:lr-tb;fill:#5f463c;fill-opacity:1;fill-rule:nonzero;stroke:none"
           transform="matrix(1,0,0,-1,0,3)"><tspan
             id="tspan90"
             y="0"
             x="0 7.2220001 12.784 18.346001 23.908001 26.686001 35.577999 41.139999 47.248001 50.577999">Nascimento</tspan></text>
</g><g
         transform="translate(406.7633,331.5849)"
         id="g94"><text
           id="text98"
           style="font-variant:normal;font-weight:normal;font-size:10px;font-family:Helvetica;-inkscape-font-specification:Helvetica;writing-mode:lr-tb;fill:#5f463c;fill-opacity:1;fill-rule:nonzero;stroke:none"
           transform="matrix(1,0,0,-1,0,3)"><tspan
             id="tspan96"
             y="0"
             x="0 5.5619998 11.124 13.906 19.468 25.030001 27.812 33.374001 38.936001 44.498001">08/03/1827</tspan></text>
</g><path
         id="path100"
         style="fill:#a9c2ff;fill-opacity:1;fill-rule:nonzero;stroke:none"
         d="m 0.25,679.2177 h 200 c 0,0 0,0 0,0 v -57 c 0,0 0,0 0,0 h -200 c 0,0 0,0 0,0 v 57 c 0,0 0,0 0,0 z" /><g
         transform="matrix(1,0,0,-1,0.25,679.2177)"
         id="g102"><path
           id="path104"
           style="fill:none;stroke:#000000;stroke-width:0.5;stroke-linecap:butt;stroke-linejoin:miter;stroke-miterlimit:10;stroke-dasharray:none;stroke-opacity:1"
           d="m 0,0 h 200 c 0,0 0,0 0,0 v 57 c 0,0 0,0 0,0 H 0 c 0,0 0,0 0,0 V 0 c 0,0 0,0 0,0 z" /></g><g
         transform="translate(10.25,651.2177)"
         id="g106"><text
           id="text110"
           style="font-variant:normal;font-weight:bold;font-size:14px;font-family:Helvetica;-inkscape-font-specification:Helvetica-Bold;writing-mode:lr-tb;fill:#000000;fill-opacity:1;fill-rule:nonzero;stroke:none"
           transform="matrix(1,0,0,-1,43.32764,4)"><tspan
             id="tspan108"
             y="0"
             x="0 10.8892 14.7784 23.329599 31.1164 39.667599 47.454399 51.343601 63.0056 70.792397 76.241203 80.130402 88.681602">Giosuè Mariot</tspan></text>
</g><g
         transform="translate(10.25,632.2177)"
         id="g112"><text
           id="text116"
           style="font-variant:normal;font-weight:bold;font-size:10px;font-family:Helvetica;-inkscape-font-specification:Helvetica-Bold;writing-mode:lr-tb;fill:#3c475f;fill-opacity:1;fill-rule:nonzero;stroke:none"
           transform="matrix(1,0,0,-1,0,3)"><tspan
             id="tspan114"
             y="0"
             x="0 7.2220001 12.784 18.346001 23.908001 26.686001 35.577999 41.139999 47.248001 50.577999">Nascimento</tspan></text>
</g><g
         transform="translate(140.2012,632.2177)"
         id="g118"><text
           id="text122"
           style="font-variant:normal;font-weight:normal;font-size:10px;font-family:Helvetica;-inkscape-font-specification:Helvetica;writing-mode:lr-tb;fill:#3c475f;fill-opacity:1;fill-rule:nonzero;stroke:none"
           transform="matrix(1,0,0,-1,0,3)"><tspan
             id="tspan120"
             y="0"
             x="0 5.5619998 11.124 13.906 19.468 25.030001 27.812 33.374001 38.936001 44.498001">17/01/1857</tspan></text>
</g><path
         id="path124"
         style="fill:#a9c2ff;fill-opacity:1;fill-rule:nonzero;stroke:none"
         d="m 0.25,838.8177 h 200 c 0,0 0,0 0,0 v -57 c 0,0 0,0 0,0 h -200 c 0,0 0,0 0,0 v 57 c 0,0 0,0 0,0 z" /><g
         transform="matrix(1,0,0,-1,0.25,838.8177)"
         id="g126"><path
           id="path128"
           style="fill:none;stroke:#000000;stroke-width:0.5;stroke-linecap:butt;stroke-linejoin:miter;stroke-miterlimit:10;stroke-dasharray:none;stroke-opacity:1"
           d="m 0,0 h 200 c 0,0 0,0 0,0 v 57 c 0,0 0,0 0,0 H 0 c 0,0 0,0 0,0 V 0 c 0,0 0,0 0,0 z" /></g><g
         transform="translate(10.25,810.8177)"
         id="g130"><text
           id="text134"
           style="font-variant:normal;font-weight:bold;font-size:14px;font-family:Helvetica;-inkscape-font-specification:Helvetica-Bold;writing-mode:lr-tb;fill:#000000;fill-opacity:1;fill-rule:nonzero;stroke:none"
           transform="matrix(1,0,0,-1,43.70361,4)"><tspan
             id="tspan132"
             y="0"
             x="0 10.1108 17.8976 25.684401 33.471199 38.919998 46.706799 50.596001 62.257999 70.0448 75.493599 79.382797 87.933998">Cesare Mariot</tspan></text>
</g><g
         transform="translate(10.25,791.8177)"
         id="g136"><text
           id="text140"
           style="font-variant:normal;font-weight:bold;font-size:10px;font-family:Helvetica;-inkscape-font-specification:Helvetica-Bold;writing-mode:lr-tb;fill:#3c475f;fill-opacity:1;fill-rule:nonzero;stroke:none"
           transform="matrix(1,0,0,-1,0,3)"><tspan
             id="tspan138"
             y="0"
             x="0 7.2220001 12.784 18.346001 23.908001 26.686001 35.577999 41.139999 47.248001 50.577999">Nascimento</tspan></text>
</g><g
         transform="translate(140.2012,791.8177)"
         id="g142"><text
           id="text146"
           style="font-variant:normal;font-weight:normal;font-size:10px;font-family:Helvetica;-inkscape-font-specification:Helvetica;writing-mode:lr-tb;fill:#3c475f;fill-opacity:1;fill-rule:nonzero;stroke:none"
           transform="matrix(1,0,0,-1,0,3)"><tspan
             id="tspan144"
             y="0"
             x="0 5.5619998 11.124 13.906 19.468 25.030001 27.812 33.374001 38.936001 44.498001">09/03/1850</tspan></text>
</g><path
         id="path148"
         style="fill:#a9c2ff;fill-opacity:1;fill-rule:nonzero;stroke:none"
         d="m 0.25,915.777 h 200 c 0,0 0,0 0,0 v -57 c 0,0 0,0 0,0 h -200 c 0,0 0,0 0,0 v 57 c 0,0 0,0 0,0 z" /><g
         transform="matrix(1,0,0,-1,0.25,915.777)"
         id="g150"><path
           id="path152"
           style="fill:none;stroke:#000000;stroke-width:0.5;stroke-linecap:butt;stroke-linejoin:miter;stroke-miterlimit:10;stroke-dasharray:none;stroke-opacity:1"
           d="m 0,0 h 200 c 0,0 0,0 0,0 v 57 c 0,0 0,0 0,0 H 0 c 0,0 0,0 0,0 V 0 c 0,0 0,0 0,0 z" /></g><g
         transform="translate(10.25,887.777)"
         id="g154"><text
           id="text158"
           style="font-variant:normal;font-weight:bold;font-size:14px;font-family:Helvetica;-inkscape-font-specification:Helvetica-Bold;writing-mode:lr-tb;fill:#000000;fill-opacity:1;fill-rule:nonzero;stroke:none"
           transform="matrix(1,0,0,-1,47.21729,4)"><tspan
             id="tspan156"
             y="0"
             x="0 9.3380003 13.2272 21.014 25.676001 31.1248 39.675999 43.565201 55.2272 63.014 68.462799 72.351997 80.903198">Pietro Mariot</tspan></text>
</g><g
         transform="translate(10.25,868.777)"
         id="g160"><text
           id="text164"
           style="font-variant:normal;font-weight:bold;font-size:10px;font-family:Helvetica;-inkscape-font-specification:Helvetica-Bold;writing-mode:lr-tb;fill:#3c475f;fill-opacity:1;fill-rule:nonzero;stroke:none"
           transform="matrix(1,0,0,-1,0,3)"><tspan
             id="tspan162"
             y="0"
             x="0 7.2220001 12.784 18.346001 23.908001 26.686001 35.577999 41.139999 47.248001 50.577999">Nascimento</tspan></text>
</g><g
         transform="translate(140.9385,868.777)"
         id="g166"><text
           id="text170"
           style="font-variant:normal;font-weight:normal;font-size:10px;font-family:Helvetica;-inkscape-font-specification:Helvetica;writing-mode:lr-tb;fill:#3c475f;fill-opacity:1;fill-rule:nonzero;stroke:none"
           transform="matrix(1,0,0,-1,0,3)"><tspan
             id="tspan168"
             y="0"
             x="0 4.8239999 10.388 13.162 18.726 24.290001 27.063999 32.627998 38.192001 43.756001">11/01/1848</tspan></text>
</g><path
         id="path172"
         style="fill:#a9c2ff;fill-opacity:1;fill-rule:nonzero;stroke:none"
         d="m 266.8122,175.8868 h 200 c 0,0 0,0 0,0 v -57 c 0,0 0,0 0,0 h -200 c 0,0 0,0 0,0 v 57 c 0,0 0,0 0,0 z" /><g
         transform="matrix(1,0,0,-1,266.8122,175.8868)"
         id="g174"><path
           id="path176"
           style="fill:none;stroke:#000000;stroke-width:0.5;stroke-linecap:butt;stroke-linejoin:miter;stroke-miterlimit:10;stroke-dasharray:none;stroke-opacity:1"
           d="m 0,0 h 200 c 0,0 0,0 0,0 v 57 c 0,0 0,0 0,0 H 0 c 0,0 0,0 0,0 V 0 c 0,0 0,0 0,0 z" /></g><g
         transform="translate(276.8122,147.8868)"
         id="g178"><text
           id="text182"
           style="font-variant:normal;font-weight:bold;font-size:14px;font-family:Helvetica;-inkscape-font-specification:Helvetica-Bold;writing-mode:lr-tb;fill:#000000;fill-opacity:1;fill-rule:nonzero;stroke:none"
           transform="matrix(1,0,0,-1,17.53564,4)"><tspan
             id="tspan180"
             y="0"
             x="0 3.8892 12.4404 20.9916 28.7784 35.7784 39.667599 48.2188 51.5956 61.706402 70.257599 78.8088 86.595596 90.484802 99.036003 102.9252 114.5872 122.374 127.8228 131.71201 140.2632">Ignazio Angelo Mariot</tspan></text>
</g><g
         transform="translate(276.8122,128.8868)"
         id="g184"><text
           id="text188"
           style="font-variant:normal;font-weight:bold;font-size:10px;font-family:Helvetica;-inkscape-font-specification:Helvetica-Bold;writing-mode:lr-tb;fill:#3c475f;fill-opacity:1;fill-rule:nonzero;stroke:none"
           transform="matrix(1,0,0,-1,0,3)"><tspan
             id="tspan186"
             y="0"
             x="0 7.2220001 12.784 18.346001 23.908001 26.686001 35.577999 41.139999 47.248001 50.577999">Nascimento</tspan></text>
</g><g
         transform="translate(406.7633,128.8868)"
         id="g190"><text
           id="text194"
           style="font-variant:normal;font-weight:normal;font-size:10px;font-family:Helvetica;-inkscape-font-specification:Helvetica;writing-mode:lr-tb;fill:#3c475f;fill-opacity:1;fill-rule:nonzero;stroke:none"
           transform="matrix(1,0,0,-1,0,3)"><tspan
             id="tspan192"
             y="0"
             x="0 5.5619998 11.124 13.906 19.468 25.030001 27.812 33.374001 38.936001 44.498001">24/09/1829</tspan></text>
</g><path
         id="path196"
         style="fill:#a9c2ff;fill-opacity:1;fill-rule:nonzero;stroke:none"
         d="m 0.25,137.05 h 200 c 0,0 0,0 0,0 V 80.05005 c 0,0 0,0 0,0 h -200 c 0,0 0,0 0,0 V 137.05 c 0,0 0,0 0,0 z" /><g
         transform="matrix(1,0,0,-1,0.25,137.05)"
         id="g198"><path
           id="path200"
           style="fill:none;stroke:#000000;stroke-width:0.5;stroke-linecap:butt;stroke-linejoin:miter;stroke-miterlimit:10;stroke-dasharray:none;stroke-opacity:1"
           d="m 0,0 h 200 c 0,0 0,0 0,0 v 57 c 0,0 0,0 0,0 H 0 c 0,0 0,0 0,0 V 0 c 0,0 0,0 0,0 z" /></g><g
         transform="translate(10.25,109.05)"
         id="g202"><text
           id="text206"
           style="font-variant:normal;font-weight:bold;font-size:14px;font-family:Helvetica;-inkscape-font-specification:Helvetica-Bold;writing-mode:lr-tb;fill:#000000;fill-opacity:1;fill-rule:nonzero;stroke:none"
           transform="matrix(1,0,0,-1,47.21729,4)"><tspan
             id="tspan204"
             y="0"
             x="0 9.3380003 13.2272 21.014 25.676001 31.1248 39.675999 43.565201 55.2272 63.014 68.462799 72.351997 80.903198">Pietro Mariot</tspan></text>
</g><g
         transform="translate(10.25,90.05005)"
         id="g208"><text
           id="text212"
           style="font-variant:normal;font-weight:bold;font-size:10px;font-family:Helvetica;-inkscape-font-specification:Helvetica-Bold;writing-mode:lr-tb;fill:#3c475f;fill-opacity:1;fill-rule:nonzero;stroke:none"
           transform="matrix(1,0,0,-1,0,3)"><tspan
             id="tspan210"
             y="0"
             x="0 7.2220001 12.784 18.346001 23.908001 26.686001 35.577999 41.139999 47.248001 50.577999">Nascimento</tspan></text>
</g><g
         transform="translate(137.4424,90.05005)"
         id="g214"><text
           id="text218"
           style="font-variant:normal;font-weight:normal;font-size:10px;font-family:Helvetica;-inkscape-font-specification:Helvetica;writing-mode:lr-tb;fill:#3c475f;fill-opacity:1;fill-rule:nonzero;stroke:none"
           transform="matrix(1,0,0,-1,0,3)"><tspan
             id="tspan216"
             y="0"
             x="0 8.3299999 13.892 17.222 22.222 27.784 30.562 36.124001 41.686001 47.248001">March 1865</tspan></text>
</g><path
         id="path220"
         style="fill:#ffc0a9;fill-opacity:1;fill-rule:nonzero;stroke:none"
         d="m 535.4951,392.3829 h 200 c 0,0 0,0 0,0 v -57 c 0,0 0,0 0,0 h -200 c 0,0 0,0 0,0 v 57 c 0,0 0,0 0,0 z" /><g
         transform="matrix(1,0,0,-1,535.4951,392.3829)"
         id="g222"><path
           id="path224"
           style="fill:none;stroke:#000000;stroke-width:1;stroke-linecap:butt;stroke-linejoin:miter;stroke-miterlimit:10;stroke-dasharray:none;stroke-opacity:1"
           d="m 0,0 h 200 c 0,0 0,0 0,0 v 57 c 0,0 0,0 0,0 H 0 c 0,0 0,0 0,0 V 0 c 0,0 0,0 0,0 z" /></g><g
         transform="translate(545.4951,364.3829)"
         id="g226"><text
           id="text230"
           style="font-variant:normal;font-weight:bold;font-size:14px;font-family:Helvetica;-inkscape-font-specification:Helvetica-Bold;writing-mode:lr-tb;fill:#000000;fill-opacity:1;fill-rule:nonzero;stroke:none"
           transform="matrix(1,0,0,-1,38.38525,4)"><tspan
             id="tspan228"
             y="0"
             x="0 7.5194001 15.3048 20.752199 28.5376 36.323002 44.108398 48.001801 56.557201 64.342598 68.236 78.345398 86.900803 95.4562">Teresa de Bona</tspan></text>
</g><g
         transform="translate(545.4951,345.3829)"
         id="g232"><text
           id="text236"
           style="font-variant:normal;font-weight:bold;font-size:10px;font-family:Helvetica;-inkscape-font-specification:Helvetica-Bold;writing-mode:lr-tb;fill:#5f463c;fill-opacity:1;fill-rule:nonzero;stroke:none"
           transform="matrix(1,0,0,-1,0,3)"><tspan
             id="tspan234"
             y="0"
             x="0 7.2220001 12.784 18.346001 23.908001 26.686001 35.577999 41.139999 47.248001 50.577999">Nascimento</tspan></text>
</g><g
         transform="translate(675.4462,345.3829)"
         id="g238"><text
           id="text242"
           style="font-variant:normal;font-weight:normal;font-size:10px;font-family:Helvetica;-inkscape-font-specification:Helvetica;writing-mode:lr-tb;fill:#5f463c;fill-opacity:1;fill-rule:nonzero;stroke:none"
           transform="matrix(1,0,0,-1,0,3)"><tspan
             id="tspan240"
             y="0"
             x="0 5.5619998 11.124 13.906 19.468 25.030001 27.812 33.374001 38.936001 44.498001">15/09/1796</tspan></text>
</g><path
         id="path244"
         style="fill:#ffc0a9;fill-opacity:1;fill-rule:nonzero;stroke:none"
         d="m 0.25,603.7498 h 200 c 0,0 0,0 0,0 v -57 c 0,0 0,0 0,0 h -200 c 0,0 0,0 0,0 v 57 c 0,0 0,0 0,0 z" /><g
         transform="matrix(1,0,0,-1,0.25,603.7498)"
         id="g246"><path
           id="path248"
           style="fill:none;stroke:#000000;stroke-width:0.5;stroke-linecap:butt;stroke-linejoin:miter;stroke-miterlimit:10;stroke-dasharray:none;stroke-opacity:1"
           d="m 0,0 h 200 c 0,0 0,0 0,0 v 57 c 0,0 0,0 0,0 H 0 c 0,0 0,0 0,0 V 0 c 0,0 0,0 0,0 z" /></g><g
         transform="translate(10.25,575.7498)"
         id="g250"><text
           id="text254"
           style="font-variant:normal;font-weight:bold;font-size:14px;font-family:Helvetica;-inkscape-font-specification:Helvetica-Bold;writing-mode:lr-tb;fill:#000000;fill-opacity:1;fill-rule:nonzero;stroke:none"
           transform="matrix(1,0,0,-1,42.94141,4)"><tspan
             id="tspan252"
             y="0"
             x="0 10.1108 15.5596 19.448799 28 31.8892 40.440399 48.2272 52.116402 63.7784 71.565201 77.014 80.903198 89.454399">Brigida Mariot</tspan></text>
</g><g
         transform="translate(10.25,556.7498)"
         id="g256"><text
           id="text260"
           style="font-variant:normal;font-weight:bold;font-size:10px;font-family:Helvetica;-inkscape-font-specification:Helvetica-Bold;writing-mode:lr-tb;fill:#5f463c;fill-opacity:1;fill-rule:nonzero;stroke:none"
           transform="matrix(1,0,0,-1,0,3)"><tspan
             id="tspan258"
             y="0"
             x="0 7.2220001 12.784 18.346001 23.908001 26.686001 35.577999 41.139999 47.248001 50.577999">Nascimento</tspan></text>
</g><g
         transform="translate(140.2012,556.7498)"
         id="g262"><text
           id="text266"
           style="font-variant:normal;font-weight:normal;font-size:10px;font-family:Helvetica;-inkscape-font-specification:Helvetica;writing-mode:lr-tb;fill:#5f463c;fill-opacity:1;fill-rule:nonzero;stroke:none"
           transform="matrix(1,0,0,-1,0,3)"><tspan
             id="tspan264"
             y="0"
             x="0 5.5619998 11.124 13.906 19.468 25.030001 27.812 33.374001 38.936001 44.498001">06/01/1859</tspan></text>
</g><path
         id="path268"
         style="fill:#ffc0a9;fill-opacity:1;fill-rule:nonzero;stroke:none"
         d="m 0.25,287.5787 h 200 c 0,0 0,0 0,0 v -57 c 0,0 0,0 0,0 h -200 c 0,0 0,0 0,0 v 57 c 0,0 0,0 0,0 z" /><g
         transform="matrix(1,0,0,-1,0.25,287.5787)"
         id="g270"><path
           id="path272"
           style="fill:none;stroke:#000000;stroke-width:0.5;stroke-linecap:butt;stroke-linejoin:miter;stroke-miterlimit:10;stroke-dasharray:none;stroke-opacity:1"
           d="m 0,0 h 200 c 0,0 0,0 0,0 v 57 c 0,0 0,0 0,0 H 0 c 0,0 0,0 0,0 V 0 c 0,0 0,0 0,0 z" /></g><g
         transform="translate(10.25,259.5787)"
         id="g274"><text
           id="text278"
           style="font-variant:normal;font-weight:bold;font-size:14px;font-family:Helvetica;-inkscape-font-specification:Helvetica-Bold;writing-mode:lr-tb;fill:#000000;fill-opacity:1;fill-rule:nonzero;stroke:none"
           transform="matrix(1,0,0,-1,31.26904,4)"><tspan
             id="tspan276"
             y="0"
             x="0 11.662 19.448799 24.8976 33.448799 42 49.7868 55.2356 59.124802 63.7868 71.573601 75.462799 87.124802 94.911598 100.3604 104.2496 112.8008">Margherita Mariot</tspan></text>
</g><g
         transform="translate(10.25,240.5787)"
         id="g280"><text
           id="text284"
           style="font-variant:normal;font-weight:bold;font-size:10px;font-family:Helvetica;-inkscape-font-specification:Helvetica-Bold;writing-mode:lr-tb;fill:#5f463c;fill-opacity:1;fill-rule:nonzero;stroke:none"
           transform="matrix(1,0,0,-1,0,3)"><tspan
             id="tspan282"
             y="0"
             x="0 7.2220001 12.784 18.346001 23.908001 26.686001 35.577999 41.139999 47.248001 50.577999">Nascimento</tspan></text>
</g><g
         transform="translate(140.2012,240.5787)"
         id="g286"><text
           id="text290"
           style="font-variant:normal;font-weight:normal;font-size:10px;font-family:Helvetica;-inkscape-font-specification:Helvetica;writing-mode:lr-tb;fill:#5f463c;fill-opacity:1;fill-rule:nonzero;stroke:none"
           transform="matrix(1,0,0,-1,0,3)"><tspan
             id="tspan288"
             y="0"
             x="0 5.5619998 11.124 13.906 19.468 25.030001 27.812 33.374001 38.936001 44.498001">04/01/1868</tspan></text>
</g><path
         id="path292"
         style="fill:#a9c2ff;fill-opacity:1;fill-rule:nonzero;stroke:none"
         d="m 266.8122,667.5873 h 200 c 0,0 0,0 0,0 v -87 c 0,0 0,0 0,0 h -200 c 0,0 0,0 0,0 v 87 c 0,0 0,0 0,0 z" /><g
         transform="matrix(1,0,0,-1,266.8122,667.5873)"
         id="g294"><path
           id="path296"
           style="fill:none;stroke:#000000;stroke-width:0.5;stroke-linecap:butt;stroke-linejoin:miter;stroke-miterlimit:10;stroke-dasharray:none;stroke-opacity:1"
           d="m 0,0 h 200 c 0,0 0,0 0,0 v 87 c 0,0 0,0 0,0 H 0 c 0,0 0,0 0,0 V 0 c 0,0 0,0 0,0 z" /></g><g
         transform="translate(276.8122,639.5873)"
         id="g298"><text
           id="text302"
           style="font-variant:normal;font-weight:bold;font-size:14px;font-family:Helvetica;-inkscape-font-specification:Helvetica-Bold;writing-mode:lr-tb;fill:#000000;fill-opacity:1;fill-rule:nonzero;stroke:none"
           transform="matrix(1,0,0,-1,18.44482,4)"><tspan
             id="tspan300"
             y="0"
             x="0 11.662 19.448799 24.1108 28.7728 36.559601 45.110802 49 52.889198 61.440399 69.9916 77.778397 84.778397 88.667603 97.218803 101.108 112.77 120.5568 126.0056 129.89481 138.446">Matteo Ignazio Mariot</tspan></text>
</g><g
         transform="translate(276.8122,620.5873)"
         id="g304"><text
           id="text308"
           style="font-variant:normal;font-weight:bold;font-size:10px;font-family:Helvetica;-inkscape-font-specification:Helvetica-Bold;writing-mode:lr-tb;fill:#3c475f;fill-opacity:1;fill-rule:nonzero;stroke:none"
           transform="matrix(1,0,0,-1,0,3)"><tspan
             id="tspan306"
             y="0"
             x="0 7.2220001 12.784 18.346001 23.908001 26.686001 35.577999 41.139999 47.248001 50.577999">Nascimento</tspan></text>
</g><g
         transform="translate(406.7633,620.5873)"
         id="g310"><text
           id="text314"
           style="font-variant:normal;font-weight:normal;font-size:10px;font-family:Helvetica;-inkscape-font-specification:Helvetica;writing-mode:lr-tb;fill:#3c475f;fill-opacity:1;fill-rule:nonzero;stroke:none"
           transform="matrix(1,0,0,-1,0,3)"><tspan
             id="tspan312"
             y="0"
             x="0 5.5619998 11.124 13.906 19.468 25.030001 27.812 33.374001 38.936001 44.498001">30/01/1818</tspan></text>
</g><g
         transform="translate(276.8122,603.5873)"
         id="g316"><text
           id="text320"
           style="font-variant:normal;font-weight:bold;font-size:10px;font-family:Helvetica;-inkscape-font-specification:Helvetica-Bold;writing-mode:lr-tb;fill:#3c475f;fill-opacity:1;fill-rule:nonzero;stroke:none"
           transform="matrix(1,0,0,-1,0,3)"><tspan
             id="tspan318"
             y="0"
             x="0 7.2220001 12.784 18.346001 23.908001 32.799999 38.362 44.470001 47.799999">Casamento</tspan></text>
</g><g
         transform="translate(406.7633,603.5873)"
         id="g322"><text
           id="text326"
           style="font-variant:normal;font-weight:normal;font-size:10px;font-family:Helvetica;-inkscape-font-specification:Helvetica;writing-mode:lr-tb;fill:#3c475f;fill-opacity:1;fill-rule:nonzero;stroke:none"
           transform="matrix(1,0,0,-1,0,3)"><tspan
             id="tspan324"
             y="0"
             x="0 5.5619998 11.124 13.906 19.468 25.030001 27.812 33.374001 38.936001 44.498001">03/02/1847</tspan></text>
</g><g
         transform="translate(276.8122,590.5873)"
         id="g328"><text
           id="text332"
           style="font-variant:normal;font-weight:normal;font-size:10px;font-family:Helvetica;-inkscape-font-specification:Helvetica;writing-mode:lr-tb;fill:#3c475f;fill-opacity:1;fill-rule:nonzero;stroke:none"
           transform="matrix(1,0,0,-1,107.168,3)"><tspan
             id="tspan330"
             y="0"
             x="0 6.6700001 12.232 17.794001 23.356001 26.134001 32.242001 37.804001 43.366001 46.144001 51.706001 57.268002 62.830002 65.052002 67.274002">Anna Fontanella</tspan></text>
</g><path
         id="path334"
         style="fill:#ffc0a9;fill-opacity:1;fill-rule:nonzero;stroke:none"
         d="m 0.25,364.3497 h 200 c 0,0 0,0 0,0 v -57 c 0,0 0,0 0,0 h -200 c 0,0 0,0 0,0 v 57 c 0,0 0,0 0,0 z" /><g
         transform="matrix(1,0,0,-1,0.25,364.3497)"
         id="g336"><path
           id="path338"
           style="fill:none;stroke:#000000;stroke-width:0.5;stroke-linecap:butt;stroke-linejoin:miter;stroke-miterlimit:10;stroke-dasharray:none;stroke-opacity:1"
           d="m 0,0 h 200 c 0,0 0,0 0,0 v 57 c 0,0 0,0 0,0 H 0 c 0,0 0,0 0,0 V 0 c 0,0 0,0 0,0 z" /></g><g
         transform="translate(10.25,336.3497)"
         id="g340"><text
           id="text344"
           style="font-variant:normal;font-weight:bold;font-size:14px;font-family:Helvetica;-inkscape-font-specification:Helvetica-Bold;writing-mode:lr-tb;fill:#000000;fill-opacity:1;fill-rule:nonzero;stroke:none"
           transform="matrix(1,0,0,-1,18.94043,4)"><tspan
             id="tspan342"
             y="0"
             x="0 7.5194001 15.3062 20.754999 28.5418 36.328602 44.115398 48.004601 58.115398 63.564201 67.4534 76.004601 79.893799 88.445 96.231796 100.121 111.783 119.5698 125.0186 128.90781 137.459">Teresa Brigida Mariot</tspan></text>
</g><g
         transform="translate(10.25,317.3497)"
         id="g346"><text
           id="text350"
           style="font-variant:normal;font-weight:bold;font-size:10px;font-family:Helvetica;-inkscape-font-specification:Helvetica-Bold;writing-mode:lr-tb;fill:#5f463c;fill-opacity:1;fill-rule:nonzero;stroke:none"
           transform="matrix(1,0,0,-1,0,3)"><tspan
             id="tspan348"
             y="0"
             x="0 7.2220001 12.784 18.346001 23.908001 26.686001 35.577999 41.139999 47.248001 50.577999">Nascimento</tspan></text>
</g><g
         transform="translate(140.2012,317.3497)"
         id="g352"><text
           id="text356"
           style="font-variant:normal;font-weight:normal;font-size:10px;font-family:Helvetica;-inkscape-font-specification:Helvetica;writing-mode:lr-tb;fill:#5f463c;fill-opacity:1;fill-rule:nonzero;stroke:none"
           transform="matrix(1,0,0,-1,0,3)"><tspan
             id="tspan354"
             y="0"
             x="0 5.5619998 11.124 13.906 19.468 25.030001 27.812 33.374001 38.936001 44.498001">22/08/1866</tspan></text>
</g><path
         id="path358"
         style="fill:#a9c2ff;fill-opacity:1;fill-rule:nonzero;stroke:none"
         d="m 0.25,523.9497 h 200 c 0,0 0,0 0,0 v -57 c 0,0 0,0 0,0 h -200 c 0,0 0,0 0,0 v 57 c 0,0 0,0 0,0 z" /><g
         transform="matrix(1,0,0,-1,0.25,523.9497)"
         id="g360"><path
           id="path362"
           style="fill:none;stroke:#000000;stroke-width:0.5;stroke-linecap:butt;stroke-linejoin:miter;stroke-miterlimit:10;stroke-dasharray:none;stroke-opacity:1"
           d="m 0,0 h 200 c 0,0 0,0 0,0 v 57 c 0,0 0,0 0,0 H 0 c 0,0 0,0 0,0 V 0 c 0,0 0,0 0,0 z" /></g><g
         transform="translate(10.25,495.9497)"
         id="g364"><text
           id="text368"
           style="font-variant:normal;font-weight:bold;font-size:14px;font-family:Helvetica;-inkscape-font-specification:Helvetica-Bold;writing-mode:lr-tb;fill:#000000;fill-opacity:1;fill-rule:nonzero;stroke:none"
           transform="matrix(1,0,0,-1,46.43799,4)"><tspan
             id="tspan366"
             y="0"
             x="0 11.662 19.448799 24.8976 32.684399 41.2356 45.124802 56.7868 64.573601 70.0224 73.911598 82.462799">Marco Mariot</tspan></text>
</g><g
         transform="translate(10.25,476.9497)"
         id="g370"><text
           id="text374"
           style="font-variant:normal;font-weight:bold;font-size:10px;font-family:Helvetica;-inkscape-font-specification:Helvetica-Bold;writing-mode:lr-tb;fill:#3c475f;fill-opacity:1;fill-rule:nonzero;stroke:none"
           transform="matrix(1,0,0,-1,0,3)"><tspan
             id="tspan372"
             y="0"
             x="0 7.2220001 12.784 18.346001 23.908001 26.686001 35.577999 41.139999 47.248001 50.577999">Nascimento</tspan></text>
</g><g
         transform="translate(140.2012,476.9497)"
         id="g376"><text
           id="text380"
           style="font-variant:normal;font-weight:normal;font-size:10px;font-family:Helvetica;-inkscape-font-specification:Helvetica;writing-mode:lr-tb;fill:#3c475f;fill-opacity:1;fill-rule:nonzero;stroke:none"
           transform="matrix(1,0,0,-1,0,3)"><tspan
             id="tspan378"
             y="0"
             x="0 5.5619998 11.124 13.906 19.468 25.030001 27.812 33.374001 38.936001 44.498001">03/03/1861</tspan></text>
</g><path
         id="path382"
         style="fill:#ffc0a9;fill-opacity:1;fill-rule:nonzero;stroke:none"
         d="m 0.25,57.25 h 200 c 0,0 0,0 0,0 v -57 c 0,0 0,0 0,0 h -200 c 0,0 0,0 0,0 v 57 c 0,0 0,0 0,0 z" /><g
         transform="matrix(1,0,0,-1,0.25,57.25)"
         id="g384"><path
           id="path386"
           style="fill:none;stroke:#000000;stroke-width:0.5;stroke-linecap:butt;stroke-linejoin:miter;stroke-miterlimit:10;stroke-dasharray:none;stroke-opacity:1"
           d="m 0,0 h 200 c 0,0 0,0 0,0 v 57 c 0,0 0,0 0,0 H 0 c 0,0 0,0 0,0 V 0 c 0,0 0,0 0,0 z" /></g><g
         transform="translate(10.25,29.25)"
         id="g388"><text
           id="text392"
           style="font-variant:normal;font-weight:bold;font-size:14px;font-family:Helvetica;-inkscape-font-specification:Helvetica-Bold;writing-mode:lr-tb;fill:#000000;fill-opacity:1;fill-rule:nonzero;stroke:none"
           transform="matrix(1,0,0,-1,31.64502,4)"><tspan
             id="tspan390"
             y="0"
             x="0 8.5721998 16.358999 24.9102 32.696999 38.145802 45.932598 54.483799 63.035 70.8218 74.710999 86.373001 94.159798 99.608597 103.4978 112.049">Veneranda Mariot</tspan></text>
</g><g
         transform="translate(10.25,10.25)"
         id="g394"><text
           id="text398"
           style="font-variant:normal;font-weight:bold;font-size:10px;font-family:Helvetica;-inkscape-font-specification:Helvetica-Bold;writing-mode:lr-tb;fill:#5f463c;fill-opacity:1;fill-rule:nonzero;stroke:none"
           transform="matrix(1,0,0,-1,0,3)"><tspan
             id="tspan396"
             y="0"
             x="0 7.2220001 12.784 18.346001 23.908001 26.686001 35.577999 41.139999 47.248001 50.577999">Nascimento</tspan></text>
</g><g
         transform="translate(140.2012,10.25)"
         id="g400"><text
           id="text404"
           style="font-variant:normal;font-weight:normal;font-size:10px;font-family:Helvetica;-inkscape-font-specification:Helvetica;writing-mode:lr-tb;fill:#5f463c;fill-opacity:1;fill-rule:nonzero;stroke:none"
           transform="matrix(1,0,0,-1,0,3)"><tspan
             id="tspan402"
             y="0"
             x="0 5.5619998 11.124 13.906 19.468 25.030001 27.812 33.374001 38.936001 44.498001">08/05/1868</tspan></text>
</g><path
         id="path406"
         style="fill:#ffc0a9;fill-opacity:1;fill-rule:nonzero;stroke:none"
         d="m 266.8122,557.7873 h 200 c 0,0 0,0 0,0 v -87 c 0,0 0,0 0,0 h -200 c 0,0 0,0 0,0 v 87 c 0,0 0,0 0,0 z" /><g
         transform="matrix(1,0,0,-1,266.8122,557.7873)"
         id="g408"><path
           id="path410"
           style="fill:none;stroke:#000000;stroke-width:0.5;stroke-linecap:butt;stroke-linejoin:miter;stroke-miterlimit:10;stroke-dasharray:none;stroke-opacity:1"
           d="m 0,0 h 200 c 0,0 0,0 0,0 v 87 c 0,0 0,0 0,0 H 0 c 0,0 0,0 0,0 V 0 c 0,0 0,0 0,0 z" /></g><g
         transform="translate(276.8122,529.7873)"
         id="g412"><text
           id="text416"
           style="font-variant:normal;font-weight:bold;font-size:14px;font-family:Helvetica;-inkscape-font-specification:Helvetica-Bold;writing-mode:lr-tb;fill:#000000;fill-opacity:1;fill-rule:nonzero;stroke:none"
           transform="matrix(1,0,0,-1,35.55176,4)"><tspan
             id="tspan414"
             y="0"
             x="0 10.1108 18.662001 27.2132 35 38.889198 47.440399 55.9916 64.542801 69.204803 76.9916 85.542801 93.329597 97.218803 101.108">Anna Fontanella</tspan></text>
</g><g
         transform="translate(276.8122,510.7873)"
         id="g418"><text
           id="text422"
           style="font-variant:normal;font-weight:bold;font-size:10px;font-family:Helvetica;-inkscape-font-specification:Helvetica-Bold;writing-mode:lr-tb;fill:#5f463c;fill-opacity:1;fill-rule:nonzero;stroke:none"
           transform="matrix(1,0,0,-1,0,3)"><tspan
             id="tspan420"
             y="0"
             x="0 7.2220001 12.784 18.346001 23.908001 26.686001 35.577999 41.139999 47.248001 50.577999">Nascimento</tspan></text>
</g><g
         transform="translate(407.5006,510.7873)"
         id="g424"><text
           id="text428"
           style="font-variant:normal;font-weight:normal;font-size:10px;font-family:Helvetica;-inkscape-font-specification:Helvetica;writing-mode:lr-tb;fill:#5f463c;fill-opacity:1;fill-rule:nonzero;stroke:none"
           transform="matrix(1,0,0,-1,0,3)"><tspan
             id="tspan426"
             y="0"
             x="0 4.8239999 10.388 13.162 18.726 24.290001 27.063999 32.627998 38.192001 43.756001">11/05/1826</tspan></text>
</g><g
         transform="translate(276.8122,493.7873)"
         id="g430"><text
           id="text434"
           style="font-variant:normal;font-weight:bold;font-size:10px;font-family:Helvetica;-inkscape-font-specification:Helvetica-Bold;writing-mode:lr-tb;fill:#5f463c;fill-opacity:1;fill-rule:nonzero;stroke:none"
           transform="matrix(1,0,0,-1,0,3)"><tspan
             id="tspan432"
             y="0"
             x="0 7.2220001 12.784 18.346001 23.908001 32.799999 38.362 44.470001 47.799999">Casamento</tspan></text>
</g><g
         transform="translate(406.7633,493.7873)"
         id="g436"><text
           id="text440"
           style="font-variant:normal;font-weight:normal;font-size:10px;font-family:Helvetica;-inkscape-font-specification:Helvetica;writing-mode:lr-tb;fill:#5f463c;fill-opacity:1;fill-rule:nonzero;stroke:none"
           transform="matrix(1,0,0,-1,0,3)"><tspan
             id="tspan438"
             y="0"
             x="0 5.5619998 11.124 13.906 19.468 25.030001 27.812 33.374001 38.936001 44.498001">03/02/1847</tspan></text>
</g><g
         transform="translate(276.8122,480.7873)"
         id="g442"><text
           id="text446"
           style="font-variant:normal;font-weight:normal;font-size:10px;font-family:Helvetica;-inkscape-font-specification:Helvetica;writing-mode:lr-tb;fill:#5f463c;fill-opacity:1;fill-rule:nonzero;stroke:none"
           transform="matrix(1,0,0,-1,83.84277,3)"><tspan
             id="tspan444"
             y="0"
             x="0 8.3299999 13.892 16.67 19.448 25.01 30.572001 33.349998 36.127998 41.689999 47.251999 52.813999 57.813999 60.035999 65.598 68.375999 76.706001 82.267998 85.598 87.82 93.382004">Matteo Ignazio Mariot</tspan></text>
</g><path
         id="path448"
         style="fill:#a9c2ff;fill-opacity:1;fill-rule:nonzero;stroke:none"
         d="m 535.4951,453.183 h 200 c 0,0 0,0 0,0 v -38 c 0,0 0,0 0,0 h -200 c 0,0 0,0 0,0 v 38 c 0,0 0,0 0,0 z" /><g
         transform="matrix(1,0,0,-1,535.4951,453.183)"
         id="g450"><path
           id="path452"
           style="fill:none;stroke:#000000;stroke-width:1;stroke-linecap:butt;stroke-linejoin:miter;stroke-miterlimit:10;stroke-dasharray:none;stroke-opacity:1"
           d="m 0,0 h 200 c 0,0 0,0 0,0 v 38 c 0,0 0,0 0,0 H 0 c 0,0 0,0 0,0 V 0 c 0,0 0,0 0,0 z" /></g><g
         transform="translate(545.4951,425.183)"
         id="g454"><text
           id="text458"
           style="font-variant:normal;font-weight:bold;font-size:14px;font-family:Helvetica;-inkscape-font-specification:Helvetica-Bold;writing-mode:lr-tb;fill:#000000;fill-opacity:1;fill-rule:nonzero;stroke:none"
           transform="matrix(1,0,0,-1,47.21729,4)"><tspan
             id="tspan456"
             y="0"
             x="0 9.3380003 13.2272 21.014 25.676001 31.1248 39.675999 43.565201 55.2272 63.014 68.462799 72.351997 80.903198">Pietro Mariot</tspan></text>
</g><path
         id="path460"
         style="fill:#a9c2ff;fill-opacity:1;fill-rule:nonzero;stroke:none"
         d="m 0.25,759.0177 h 200 c 0,0 0,0 0,0 v -57 c 0,0 0,0 0,0 h -200 c 0,0 0,0 0,0 v 57 c 0,0 0,0 0,0 z" /><g
         transform="matrix(1,0,0,-1,0.25,759.0177)"
         id="g462"><path
           id="path464"
           style="fill:none;stroke:#000000;stroke-width:0.5;stroke-linecap:butt;stroke-linejoin:miter;stroke-miterlimit:10;stroke-dasharray:none;stroke-opacity:1"
           d="m 0,0 h 200 c 0,0 0,0 0,0 v 57 c 0,0 0,0 0,0 H 0 c 0,0 0,0 0,0 V 0 c 0,0 0,0 0,0 z" /></g><g
         transform="translate(10.25,731.0177)"
         id="g466"><text
           id="text470"
           style="font-variant:normal;font-weight:bold;font-size:14px;font-family:Helvetica;-inkscape-font-specification:Helvetica-Bold;writing-mode:lr-tb;fill:#000000;fill-opacity:1;fill-rule:nonzero;stroke:none"
           transform="matrix(1,0,0,-1,37.10693,4)"><tspan
             id="tspan468"
             y="0"
             x="0 10.8892 14.7784 23.329599 31.1164 38.903198 47.454399 56.0056 59.894798 63.784 75.445999 83.232803 88.681602 92.570801 101.122">Giovanni Mariot</tspan></text>
</g><g
         transform="translate(10.25,712.0177)"
         id="g472"><text
           id="text476"
           style="font-variant:normal;font-weight:bold;font-size:10px;font-family:Helvetica;-inkscape-font-specification:Helvetica-Bold;writing-mode:lr-tb;fill:#3c475f;fill-opacity:1;fill-rule:nonzero;stroke:none"
           transform="matrix(1,0,0,-1,0,3)"><tspan
             id="tspan474"
             y="0"
             x="0 7.2220001 12.784 18.346001 23.908001 26.686001 35.577999 41.139999 47.248001 50.577999">Nascimento</tspan></text>
</g><g
         transform="translate(140.2012,712.0177)"
         id="g478"><text
           id="text482"
           style="font-variant:normal;font-weight:normal;font-size:10px;font-family:Helvetica;-inkscape-font-specification:Helvetica;writing-mode:lr-tb;fill:#3c475f;fill-opacity:1;fill-rule:nonzero;stroke:none"
           transform="matrix(1,0,0,-1,0,3)"><tspan
             id="tspan480"
             y="0"
             x="0 5.5619998 11.124 13.906 19.468 25.030001 27.812 33.374001 38.936001 44.498001">04/08/1854</tspan></text>
</g><path
         id="path484"
         style="fill:#ffc0a9;fill-opacity:1;fill-rule:nonzero;stroke:none"
         d="m 266.8122,96.08689 h 200 c 0,0 0,0 0,0 v -57 c 0,0 0,0 0,0 h -200 c 0,0 0,0 0,0 v 57 c 0,0 0,0 0,0 z" /><g
         transform="matrix(1,0,0,-1,266.8122,96.08689)"
         id="g486"><path
           id="path488"
           style="fill:none;stroke:#000000;stroke-width:0.5;stroke-linecap:butt;stroke-linejoin:miter;stroke-miterlimit:10;stroke-dasharray:none;stroke-opacity:1"
           d="m 0,0 h 200 c 0,0 0,0 0,0 v 57 c 0,0 0,0 0,0 H 0 c 0,0 0,0 0,0 V 0 c 0,0 0,0 0,0 z" /></g><g
         transform="translate(276.8122,68.08689)"
         id="g490"><text
           id="text494"
           style="font-variant:normal;font-weight:bold;font-size:14px;font-family:Helvetica;-inkscape-font-specification:Helvetica-Bold;writing-mode:lr-tb;fill:#000000;fill-opacity:1;fill-rule:nonzero;stroke:none"
           transform="matrix(1,0,0,-1,51.48975,4)"><tspan
             id="tspan492"
             y="0"
             x="0 11.662 19.448799 24.8976 28.7868 36.573601 40.462799 50.573601 56.0224 63.8092 68.471199 73.133202">Maria Bratti</tspan></text>
</g><g
         transform="translate(276.8122,49.08689)"
         id="g496"><text
           id="text500"
           style="font-variant:normal;font-weight:bold;font-size:10px;font-family:Helvetica;-inkscape-font-specification:Helvetica-Bold;writing-mode:lr-tb;fill:#5f463c;fill-opacity:1;fill-rule:nonzero;stroke:none"
           transform="matrix(1,0,0,-1,0,3)"><tspan
             id="tspan498"
             y="0"
             x="0 7.2220001 12.784 18.346001 23.908001 26.686001 35.577999 41.139999 47.248001 50.577999">Nascimento</tspan></text>
</g><g
         transform="translate(406.7633,49.08689)"
         id="g502"><text
           id="text506"
           style="font-variant:normal;font-weight:normal;font-size:10px;font-family:Helvetica;-inkscape-font-specification:Helvetica;writing-mode:lr-tb;fill:#5f463c;fill-opacity:1;fill-rule:nonzero;stroke:none"
           transform="matrix(1,0,0,-1,0,3)"><tspan
             id="tspan504"
             y="0"
             x="0 5.5619998 11.124 13.906 19.468 25.030001 27.812 33.374001 38.936001 44.498001">27/09/1839</tspan></text>
</g></g></g></svg>