<?xml version="1.0" encoding="UTF-8" standalone="no"?>
<!DOCTYPE svg PUBLIC "-//W3C//DTD SVG 1.1//EN" "http://www.w3.org/Graphics/SVG/1.1/DTD/svg11.dtd">
<svg xmlns="http://www.w3.org/2000/svg" xmlns:xlink="http://www.w3.org/1999/xlink" version="1.1" width="571pt" height="1088pt" viewBox="0 0 571 1088">
<g enable-background="new">
<path transform="matrix(1,0,0,1,260.5,58.5)" stroke-width="2" stroke-linecap="round" stroke-miterlimit="10" stroke-linejoin="miter" fill="none" stroke="#000000" d="M 27.5 0 L 27.5 971 M 0 202 L 27.5 202 M 0 971 L 27.5 971 M 0 685.5 L 27.5 685.5 M 0 346 L 27.5 346 M 0 490 L 27.5 490 M 0 0 L 27.5 0 M 0 825 L 27.5 825 M 0 591 L 27.5 591 M 0 101 L 27.5 101 M 49.99999 562 L 27.5 562 M 49.99999 403 L 27.5 403 "/>
<path transform="matrix(1,0,0,-1,0,1088)" d="M 310.5 552 L 560.5 552 L 560.5 383 L 310.5 383 L 310.5 552 Z " fill="#ffc1a9"/>
<path transform="matrix(1,0,0,1,310.5,536)" stroke-width="1" stroke-linecap="butt" stroke-miterlimit="10" stroke-linejoin="miter" fill="none" stroke="#000000" d="M 0 0 L 250 0 L 250 169 L 0 169 L 0 0 Z "/>
<text xml:space="preserve" transform="matrix(1 0 -0 1 318.5 562)" font-size="14" font-family="Helvetica" font-weight="bold"><tspan y="-4" x="62.55176 72.66256 81.21376 89.76496 97.551769 101.44096 109.992168 118.543369 127.09457 131.75656 139.54337 148.09456 155.88137 159.77056 163.65975">Anna Fontanella</tspan></text>
<text fill="#5f463c" xml:space="preserve" transform="matrix(1 0 -0 1 318.5 581)" font-size="10" font-family="Helvetica" font-weight="bold"><tspan y="-3" x="0 7.2220008 12.784001 18.346003 23.908003 26.686003 35.578004 41.140005 47.248006 50.578004">Nascimento</tspan></text>
<text fill="#5f463c" xml:space="preserve" transform="matrix(1 0 -0 1 503.1885 581)" font-size="10" font-family="Helvetica"><tspan y="-3" x="0 4.8240005 10.3880009 13.162002 18.726002 24.290003 27.064003 32.628007 38.19201 43.756013">11/05/1826</tspan></text>
<text fill="#5f463c" xml:space="preserve" transform="matrix(1 0 -0 1 318.5 594)" font-size="10" font-family="Helvetica"><tspan y="-3" x="186.1777 191.7397 197.3017 202.8637 208.42569 213.98769 217.31769 222.87969 228.44168">Longarone</tspan></text>
<text fill="#5f463c" xml:space="preserve" transform="matrix(1 0 -0 1 318.5 611)" font-size="10" font-family="Helvetica" font-weight="bold"><tspan y="-3" x="0 7.2220008 12.784001 18.346003 23.908003 32.800004 38.362005 44.470006 47.800004">Casamento</tspan></text>
<text fill="#5f463c" xml:space="preserve" transform="matrix(1 0 -0 1 502.4512 611)" font-size="10" font-family="Helvetica"><tspan y="-3" x="0 5.5620005 11.124001 13.906001 19.468003 25.030003 27.812003 33.374 38.936 44.498">03/02/1847</tspan></text>
<text fill="#5f463c" xml:space="preserve" transform="matrix(1 0 -0 1 318.5 624)" font-size="10" font-family="Helvetica"><tspan y="-3" x="137.8428 146.1728 151.7348 154.5128 157.2908 162.8528 168.4148 171.1928 173.9708 179.53279 185.09479 190.65679 195.65679 197.87879 203.44078 206.21878 214.54878 220.11078 223.44078 225.66278 231.22478">Matteo Ignazio Mariot</tspan></text>
<text fill="#5f463c" xml:space="preserve" transform="matrix(1 0 -0 1 318.5 637)" font-size="10" font-family="Helvetica"><tspan y="-3" x="186.1777 191.7397 197.3017 202.8637 208.42569 213.98769 217.31769 222.87969 228.44168">Longarone</tspan></text>
<text fill="#5f463c" xml:space="preserve" transform="matrix(1 0 -0 1 318.5 654)" font-size="10" font-family="Helvetica" font-weight="bold"><tspan y="-3" x="0 7.778001 13.886001 16.664 19.994">&#x00d3;bito</tspan></text>
<text fill="#5f463c" xml:space="preserve" transform="matrix(1 0 -0 1 502.4512 654)" font-size="10" font-family="Helvetica"><tspan y="-3" x="0 5.5620005 11.124001 13.906001 19.468003 25.030003 27.812003 33.374 38.936 44.498">24/04/1917</tspan></text>
<text fill="#5f463c" xml:space="preserve" transform="matrix(1 0 -0 1 318.5 667)" font-size="10" font-family="Helvetica"><tspan y="-3" x="183.9756 191.1976 196.7596 201.7596 207.3216 210.0996 216.76959 220.0996 225.66159 228.43959">Nova Prata</tspan></text>
<text fill="#5f463c" xml:space="preserve" transform="matrix(1 0 -0 1 318.5 684)" font-size="10" font-family="Helvetica" font-weight="bold"><tspan y="-3" x="0 6.6700007 12.778001 16.108002 21.670004 25.562006 29.454009">Enterro</tspan></text>
<text fill="#5f463c" xml:space="preserve" transform="matrix(1 0 -0 1 502.4512 684)" font-size="10" font-family="Helvetica"><tspan y="-3" x="0 5.5620005 11.124001 13.906001 19.468003 25.030003 27.812003 33.374 38.936 44.498">25/04/1917</tspan></text>
<text fill="#5f463c" xml:space="preserve" transform="matrix(1 0 -0 1 318.5 697)" font-size="10" font-family="Helvetica"><tspan y="-3" x="183.9756 191.1976 196.7596 201.7596 207.3216 210.0996 216.76959 220.0996 225.66159 228.43959">Nova Prata</tspan></text>
<path transform="matrix(1,0,0,-1,0,1088)" d="M 10.5 106.5 L 260.5 106.5 L 260.5 10.5 L 10.5 10.5 L 10.5 106.5 Z " fill="#ffc1a9"/>
<path transform="matrix(1,0,0,1,10.5,981.5)" stroke-width="1" stroke-linecap="butt" stroke-miterlimit="10" stroke-linejoin="miter" fill="none" stroke="#000000" d="M 0 0 L 250 0 L 250 96 L 0 96 L 0 0 Z "/>
<text xml:space="preserve" transform="matrix(1 0 -0 1 18.5 1007.5)" font-size="14" font-family="Helvetica" font-weight="bold"><tspan y="-4" x="58.26904 69.93104 77.71784 83.16664 91.71784 100.26904 108.05585 113.50465 117.393848 122.05585 129.84265 133.73184 145.39385 153.18065 158.62946 162.51865 171.06984">Margherita Mariot</tspan></text>
<text fill="#5f463c" xml:space="preserve" transform="matrix(1 0 -0 1 18.5 1026.5)" font-size="10" font-family="Helvetica" font-weight="bold"><tspan y="-3" x="0 7.2220008 12.784001 18.346003 23.908003 26.686003 35.578004 41.140005 47.248006 50.578004">Nascimento</tspan></text>
<text fill="#5f463c" xml:space="preserve" transform="matrix(1 0 -0 1 202.4512 1026.5)" font-size="10" font-family="Helvetica"><tspan y="-3" x="0 5.5620005 11.124001 13.906001 19.468003 25.030003 27.812003 33.374 38.936 44.498">04/01/1868</tspan></text>
<text fill="#5f463c" xml:space="preserve" transform="matrix(1 0 -0 1 18.5 1039.5)" font-size="10" font-family="Helvetica"><tspan y="-3" x="151.7148 158.3848 160.6068 163.9368 169.4988 175.06079 180.62279 183.40079 186.17879 191.74079 197.30278 202.86478 208.42678 213.98877 217.31877 222.88077 228.44277">Pirago, Longarone</tspan></text>
<text fill="#5f463c" xml:space="preserve" transform="matrix(1 0 -0 1 18.5 1056.5)" font-size="10" font-family="Helvetica" font-weight="bold"><tspan y="-3" x="0 7.778001 13.886001 16.664 19.994">&#x00d3;bito</tspan></text>
<text fill="#5f463c" xml:space="preserve" transform="matrix(1 0 -0 1 202.4512 1056.5)" font-size="10" font-family="Helvetica"><tspan y="-3" x="0 5.5620005 11.124001 16.686 22.248002 25.03 27.812 33.374 38.936 44.498">about 1889</tspan></text>
<text fill="#5f463c" xml:space="preserve" transform="matrix(1 0 -0 1 18.5 1069.5)" font-size="10" font-family="Helvetica"><tspan y="-3" x="167.291 173.961 179.523 185.08499 187.86299 193.42499 196.20299 203.42499 208.98699 211.76499 217.32698 220.65699 222.87899 228.44098">Santa Catarina</tspan></text>
<path transform="matrix(1,0,0,-1,0,1088)" d="M 10.5 1077.5 L 260.5 1077.5 L 260.5 981.5 L 10.5 981.5 L 10.5 1077.5 Z " fill="#a9c2ff"/>
<path transform="matrix(1,0,0,1,10.5,10.5)" stroke-width="1" stroke-linecap="butt" stroke-miterlimit="10" stroke-linejoin="miter" fill="none" stroke="#000000" d="M 0 0 L 250 0 L 250 96 L 0 96 L 0 0 Z "/>
<text xml:space="preserve" transform="matrix(1 0 -0 1 18.5 36.5)" font-size="14" font-family="Helvetica" font-weight="bold"><tspan y="-4" x="50.10352 59.44152 63.330724 71.11752 75.779529 81.228328 89.779529 93.668727 105.33073 113.11753 118.56633 122.45553 131.00672 135.66872 139.5579 144.21991 153.5579 157.4471 165.2339 170.68271 179.2339">Pietro Mariot (Piero)</tspan></text>
<text fill="#3c465f" xml:space="preserve" transform="matrix(1 0 -0 1 18.5 55.5)" font-size="10" font-family="Helvetica" font-weight="bold"><tspan y="-3" x="0 7.2220008 12.784001 18.346003 23.908003 26.686003 35.578004 41.140005 47.248006 50.578004">Nascimento</tspan></text>
<text fill="#3c465f" xml:space="preserve" transform="matrix(1 0 -0 1 203.1885 55.5)" font-size="10" font-family="Helvetica"><tspan y="-3" x="0 4.8240005 10.3880009 13.162002 18.726002 24.290003 27.064003 32.628007 38.19201 43.756013">11/01/1848</tspan></text>
<text fill="#3c465f" xml:space="preserve" transform="matrix(1 0 -0 1 18.5 68.5)" font-size="10" font-family="Helvetica"><tspan y="-3" x="151.7148 158.3848 160.6068 163.9368 169.4988 175.06079 180.62279 183.40079 186.17879 191.74079 197.30278 202.86478 208.42678 213.98877 217.31877 222.88077 228.44277">Pirago, Longarone</tspan></text>
<text fill="#3c465f" xml:space="preserve" transform="matrix(1 0 -0 1 18.5 85.5)" font-size="10" font-family="Helvetica" font-weight="bold"><tspan y="-3" x="0 7.778001 13.886001 16.664 19.994">&#x00d3;bito</tspan></text>
<text fill="#3c465f" xml:space="preserve" transform="matrix(1 0 -0 1 202.4512 85.5)" font-size="10" font-family="Helvetica"><tspan y="-3" x="0 5.5620005 11.124001 13.906001 19.468003 25.030003 27.812003 33.374 38.936 44.498">07/12/1933</tspan></text>
<text fill="#3c465f" xml:space="preserve" transform="matrix(1 0 -0 1 18.5 98.5)" font-size="10" font-family="Helvetica"><tspan y="-3" x="127.2861 134.5081 136.7301 142.2921 145.0701 152.2921 157.8541 162.8541 168.41609 171.7461 174.5241 180.08609 182.86409 185.64209 192.86409 196.19409 201.75609 206.75609 211.75609 217.31809 222.88008 228.44208">Rio Deserto, Urussanga</tspan></text>
<path transform="matrix(1,0,0,-1,0,1088)" d="M 10.5 587.5 L 260.5 587.5 L 260.5 491.5 L 10.5 491.5 L 10.5 587.5 Z " fill="#ffc1a9"/>
<path transform="matrix(1,0,0,1,10.5,500.5)" stroke-width="1" stroke-linecap="butt" stroke-miterlimit="10" stroke-linejoin="miter" fill="none" stroke="#000000" d="M 0 0 L 250 0 L 250 96 L 0 96 L 0 0 Z "/>
<text xml:space="preserve" transform="matrix(1 0 -0 1 18.5 526.5)" font-size="14" font-family="Helvetica" font-weight="bold"><tspan y="-4" x="69.94141 80.05221 85.50101 89.390209 97.94141 101.830608 110.381809 118.16861 122.05781 133.7198 141.5066 146.95542 150.8446 159.3958">Brigida Mariot</tspan></text>
<text fill="#5f463c" xml:space="preserve" transform="matrix(1 0 -0 1 18.5 545.5)" font-size="10" font-family="Helvetica" font-weight="bold"><tspan y="-3" x="0 7.2220008 12.784001 18.346003 23.908003 26.686003 35.578004 41.140005 47.248006 50.578004">Nascimento</tspan></text>
<text fill="#5f463c" xml:space="preserve" transform="matrix(1 0 -0 1 202.4512 545.5)" font-size="10" font-family="Helvetica"><tspan y="-3" x="0 5.5620005 11.124001 13.906001 19.468003 25.030003 27.812003 33.374 38.936 44.498">06/01/1859</tspan></text>
<text fill="#5f463c" xml:space="preserve" transform="matrix(1 0 -0 1 18.5 558.5)" font-size="10" font-family="Helvetica"><tspan y="-3" x="151.7148 158.3848 160.6068 163.9368 169.4988 175.06079 180.62279 183.40079 186.17879 191.74079 197.30278 202.86478 208.42678 213.98877 217.31877 222.88077 228.44277">Pirago, Longarone</tspan></text>
<text fill="#5f463c" xml:space="preserve" transform="matrix(1 0 -0 1 18.5 575.5)" font-size="10" font-family="Helvetica" font-weight="bold"><tspan y="-3" x="0 7.778001 13.886001 16.664 19.994">&#x00d3;bito</tspan></text>
<text fill="#5f463c" xml:space="preserve" transform="matrix(1 0 -0 1 202.4512 575.5)" font-size="10" font-family="Helvetica"><tspan y="-3" x="0 5.5620005 11.124001 13.906001 19.468003 25.030003 27.812003 33.374 38.936 44.498">15/05/1861</tspan></text>
<text fill="#5f463c" xml:space="preserve" transform="matrix(1 0 -0 1 18.5 588.5)" font-size="10" font-family="Helvetica"><tspan y="-3" x="186.1777 191.7397 197.3017 202.8637 208.42569 213.98769 217.31769 222.87969 228.44168">Longarone</tspan></text>
<path transform="matrix(1,0,0,-1,0,1088)" d="M 10.5 385.5 L 260.5 385.5 L 260.5 302.5 L 10.5 302.5 L 10.5 385.5 Z " fill="#ffc1a9"/>
<path transform="matrix(1,0,0,1,10.5,702.5)" stroke-width="1" stroke-linecap="butt" stroke-miterlimit="10" stroke-linejoin="miter" fill="none" stroke="#000000" d="M 0 0 L 250 0 L 250 83 L 0 83 L 0 0 Z "/>
<text xml:space="preserve" transform="matrix(1 0 -0 1 18.5 728.5)" font-size="14" font-family="Helvetica" font-weight="bold"><tspan y="-4" x="45.94043 53.45983 61.24663 66.695438 74.48224 82.26904 90.05585 93.945049 104.05585 109.50465 113.393848 121.945049 125.83424 134.38544 142.17224 146.06143 157.72344 165.51024 170.95905 174.84824 183.39943">Teresa Brigida Mariot</tspan></text>
<text fill="#5f463c" xml:space="preserve" transform="matrix(1 0 -0 1 18.5 747.5)" font-size="10" font-family="Helvetica" font-weight="bold"><tspan y="-3" x="0 7.2220008 12.784001 18.346003 23.908003 26.686003 35.578004 41.140005 47.248006 50.578004">Nascimento</tspan></text>
<text fill="#5f463c" xml:space="preserve" transform="matrix(1 0 -0 1 202.4512 747.5)" font-size="10" font-family="Helvetica"><tspan y="-3" x="0 5.5620005 11.124001 13.906001 19.468003 25.030003 27.812003 33.374 38.936 44.498">22/08/1863</tspan></text>
<text fill="#5f463c" xml:space="preserve" transform="matrix(1 0 -0 1 18.5 760.5)" font-size="10" font-family="Helvetica"><tspan y="-3" x="151.7148 158.3848 160.6068 163.9368 169.4988 175.06079 180.62279 183.40079 186.17879 191.74079 197.30278 202.86478 208.42678 213.98877 217.31877 222.88077 228.44277">Pirago, Longarone</tspan></text>
<text fill="#5f463c" xml:space="preserve" transform="matrix(1 0 -0 1 18.5 777.5)" font-size="10" font-family="Helvetica" font-weight="bold"><tspan y="-3" x="0 7.778001 13.886001 16.664 19.994">&#x00d3;bito</tspan></text>
<path transform="matrix(1,0,0,-1,0,1088)" d="M 10.5 976.5 L 260.5 976.5 L 260.5 880.5 L 10.5 880.5 L 10.5 976.5 Z " fill="#a9c2ff"/>
<path transform="matrix(1,0,0,1,10.5,111.5)" stroke-width="1" stroke-linecap="butt" stroke-miterlimit="10" stroke-linejoin="miter" fill="none" stroke="#000000" d="M 0 0 L 250 0 L 250 96 L 0 96 L 0 0 Z "/>
<text xml:space="preserve" transform="matrix(1 0 -0 1 18.5 137.5)" font-size="14" font-family="Helvetica" font-weight="bold"><tspan y="-4" x="70.70361 80.814418 88.60122 96.38802 104.17483 109.62363 117.41043 121.29963 132.96163 140.74843 146.19724 150.08643 158.63762">Cesare Mariot</tspan></text>
<text fill="#3c465f" xml:space="preserve" transform="matrix(1 0 -0 1 18.5 156.5)" font-size="10" font-family="Helvetica" font-weight="bold"><tspan y="-3" x="0 7.2220008 12.784001 18.346003 23.908003 26.686003 35.578004 41.140005 47.248006 50.578004">Nascimento</tspan></text>
<text fill="#3c465f" xml:space="preserve" transform="matrix(1 0 -0 1 202.4512 156.5)" font-size="10" font-family="Helvetica"><tspan y="-3" x="0 5.5620005 11.124001 13.906001 19.468003 25.030003 27.812003 33.374 38.936 44.498">09/03/1850</tspan></text>
<text fill="#3c465f" xml:space="preserve" transform="matrix(1 0 -0 1 18.5 169.5)" font-size="10" font-family="Helvetica"><tspan y="-3" x="151.7148 158.3848 160.6068 163.9368 169.4988 175.06079 180.62279 183.40079 186.17879 191.74079 197.30278 202.86478 208.42678 213.98877 217.31877 222.88077 228.44277">Pirago, Longarone</tspan></text>
<text fill="#3c465f" xml:space="preserve" transform="matrix(1 0 -0 1 18.5 186.5)" font-size="10" font-family="Helvetica" font-weight="bold"><tspan y="-3" x="0 7.778001 13.886001 16.664 19.994">&#x00d3;bito</tspan></text>
<text fill="#3c465f" xml:space="preserve" transform="matrix(1 0 -0 1 196.6113 186.5)" font-size="10" font-family="Helvetica"><tspan y="-3" x="0 5.5620005 11.124001 16.686003 22.248003 25.026003 30.866003 33.644006 39.206007 44.768007 50.330007">1870 ~ 1879</tspan></text>
<text fill="#3c465f" xml:space="preserve" transform="matrix(1 0 -0 1 18.5 199.5)" font-size="10" font-family="Helvetica"><tspan y="-3" x="191.7441 198.4141 203.97609 209.53809 215.10009 220.66208 226.22408 231.22408">Budapest</tspan></text>
<path transform="matrix(1,0,0,-1,0,1088)" d="M 10.5 297.5 L 260.5 297.5 L 260.5 111.5 L 10.5 111.5 L 10.5 297.5 Z " fill="#ffc1a9"/>
<path transform="matrix(1,0,0,1,10.5,790.5)" stroke-width="1" stroke-linecap="butt" stroke-miterlimit="10" stroke-linejoin="miter" fill="none" stroke="#000000" d="M 0 0 L 250 0 L 250 186 L 0 186 L 0 0 Z "/>
<text xml:space="preserve" transform="matrix(1 0 -0 1 18.5 816.5)" font-size="14" font-family="Helvetica" font-weight="bold"><tspan y="-4" x="63.31738 71.88958 79.676387 83.56558 91.35239 99.90359 104.56559 108.45479 117.00599 124.79279 128.68199 140.344 148.1308 153.5796 157.4688 166.01999">Valentina Mariot</tspan></text>
<text fill="#5f463c" xml:space="preserve" transform="matrix(1 0 -0 1 18.5 835.5)" font-size="10" font-family="Helvetica" font-weight="bold"><tspan y="-3" x="0 7.2220008 12.784001 18.346003 23.908003 26.686003 35.578004 41.140005 47.248006 50.578004">Nascimento</tspan></text>
<text fill="#5f463c" xml:space="preserve" transform="matrix(1 0 -0 1 202.4512 835.5)" font-size="10" font-family="Helvetica"><tspan y="-3" x="0 5.5620005 11.124001 13.906001 19.468003 25.030003 27.812003 33.374 38.936 44.498">18/10/1865</tspan></text>
<text fill="#5f463c" xml:space="preserve" transform="matrix(1 0 -0 1 18.5 848.5)" font-size="10" font-family="Helvetica"><tspan y="-3" x="151.7148 158.3848 160.6068 163.9368 169.4988 175.06079 180.62279 183.40079 186.17879 191.74079 197.30278 202.86478 208.42678 213.98877 217.31877 222.88077 228.44277">Pirago, Longarone</tspan></text>
<text fill="#5f463c" xml:space="preserve" transform="matrix(1 0 -0 1 18.5 865.5)" font-size="10" font-family="Helvetica" font-weight="bold"><tspan y="-3" x="0 7.2220008 12.784001 18.346003 23.908003 32.800004 38.362005 44.470006 47.800004">Casamento</tspan></text>
<text fill="#5f463c" xml:space="preserve" transform="matrix(1 0 -0 1 202.4512 865.5)" font-size="10" font-family="Helvetica"><tspan y="-3" x="0 5.5620005 11.124001 13.906001 19.468003 25.030003 27.812003 33.374 38.936 44.498">24/12/1884</tspan></text>
<text fill="#5f463c" xml:space="preserve" transform="matrix(1 0 -0 1 18.5 878.5)" font-size="10" font-family="Helvetica"><tspan y="-3" x="143.9414 151.7194 153.9414 159.5034 164.5034 170.0654 175.6274 181.18939 186.75139 189.35439 195.09639 198.42639 203.98839 212.31839 217.88039 223.44239 226.22039 228.44239">Giuseppe Tramontin</tspan></text>
<text fill="#5f463c" xml:space="preserve" transform="matrix(1 0 -0 1 18.5 895.5)" font-size="10" font-family="Helvetica" font-weight="bold"><tspan y="-3" x="0 7.2220008 12.784001 18.346003 23.908003 32.800004 38.362005 44.470006 47.800004">Casamento</tspan></text>
<text fill="#5f463c" xml:space="preserve" transform="matrix(1 0 -0 1 203.1885 895.5)" font-size="10" font-family="Helvetica"><tspan y="-3" x="0 5.5620005 11.124001 13.906001 19.468003 25.030003 27.812003 33.374 38.936 43.758">22/06/1911</tspan></text>
<text fill="#5f463c" xml:space="preserve" transform="matrix(1 0 -0 1 18.5 908.5)" font-size="10" font-family="Helvetica"><tspan y="-3" x="178.9707 185.6407 191.2027 194.5327 196.7547 201.7547 207.3167 210.0947 215.6567 221.21869 226.78069 231.78069">Enrico Lenzi</tspan></text>
<text fill="#5f463c" xml:space="preserve" transform="matrix(1 0 -0 1 18.5 925.5)" font-size="10" font-family="Helvetica" font-weight="bold"><tspan y="-3" x="0 7.778001 13.886001 16.664 19.994">&#x00d3;bito</tspan></text>
<text fill="#5f463c" xml:space="preserve" transform="matrix(1 0 -0 1 202.4512 925.5)" font-size="10" font-family="Helvetica"><tspan y="-3" x="0 5.5620005 11.124001 13.906001 19.468003 25.030003 27.812003 33.374 38.936 44.498">07/10/1947</tspan></text>
<text fill="#5f463c" xml:space="preserve" transform="matrix(1 0 -0 1 18.5 938.5)" font-size="10" font-family="Helvetica"><tspan y="-3" x="183.9756 191.1976 196.7596 201.7596 207.3216 210.0996 216.76959 220.0996 225.66159 228.43959">Nova Prata</tspan></text>
<text fill="#5f463c" xml:space="preserve" transform="matrix(1 0 -0 1 18.5 955.5)" font-size="10" font-family="Helvetica" font-weight="bold"><tspan y="-3" x="0 6.6700007 12.778001 16.108002 21.670004 25.562006 29.454009">Enterro</tspan></text>
<text fill="#5f463c" xml:space="preserve" transform="matrix(1 0 -0 1 202.4512 955.5)" font-size="10" font-family="Helvetica"><tspan y="-3" x="0 5.5620005 11.124001 13.906001 19.468003 25.030003 27.812003 33.374 38.936 44.498">08/10/1947</tspan></text>
<text fill="#5f463c" xml:space="preserve" transform="matrix(1 0 -0 1 18.5 968.5)" font-size="10" font-family="Helvetica"><tspan y="-3" x="183.9756 191.1976 196.7596 201.7596 207.3216 210.0996 216.76959 220.0996 225.66159 228.43959">Nova Prata</tspan></text>
<path transform="matrix(1,0,0,-1,0,1088)" d="M 10.5 486.5 L 260.5 486.5 L 260.5 390.5 L 10.5 390.5 L 10.5 486.5 Z " fill="#a9c2ff"/>
<path transform="matrix(1,0,0,1,10.5,601.5)" stroke-width="1" stroke-linecap="butt" stroke-miterlimit="10" stroke-linejoin="miter" fill="none" stroke="#000000" d="M 0 0 L 250 0 L 250 96 L 0 96 L 0 0 Z "/>
<text xml:space="preserve" transform="matrix(1 0 -0 1 18.5 627.5)" font-size="14" font-family="Helvetica" font-weight="bold"><tspan y="-4" x="73.43799 85.09999 92.886798 98.335597 106.1224 114.6736 118.5628 130.2248 138.0116 143.4604 147.3496 155.90079">Marco Mariot</tspan></text>
<text fill="#3c465f" xml:space="preserve" transform="matrix(1 0 -0 1 18.5 646.5)" font-size="10" font-family="Helvetica" font-weight="bold"><tspan y="-3" x="0 7.2220008 12.784001 18.346003 23.908003 26.686003 35.578004 41.140005 47.248006 50.578004">Nascimento</tspan></text>
<text fill="#3c465f" xml:space="preserve" transform="matrix(1 0 -0 1 202.4512 646.5)" font-size="10" font-family="Helvetica"><tspan y="-3" x="0 5.5620005 11.124001 13.906001 19.468003 25.030003 27.812003 33.374 38.936 44.498">03/03/1861</tspan></text>
<text fill="#3c465f" xml:space="preserve" transform="matrix(1 0 -0 1 18.5 659.5)" font-size="10" font-family="Helvetica"><tspan y="-3" x="151.7148 158.3848 160.6068 163.9368 169.4988 175.06079 180.62279 183.40079 186.17879 191.74079 197.30278 202.86478 208.42678 213.98877 217.31877 222.88077 228.44277">Pirago, Longarone</tspan></text>
<text fill="#3c465f" xml:space="preserve" transform="matrix(1 0 -0 1 18.5 676.5)" font-size="10" font-family="Helvetica" font-weight="bold"><tspan y="-3" x="0 7.778001 13.886001 16.664 19.994">&#x00d3;bito</tspan></text>
<text fill="#3c465f" xml:space="preserve" transform="matrix(1 0 -0 1 202.4512 676.5)" font-size="10" font-family="Helvetica"><tspan y="-3" x="0 5.5620005 11.124001 13.906001 19.468003 25.030003 27.812003 33.374 38.936 44.498">09/10/1939</tspan></text>
<text fill="#3c465f" xml:space="preserve" transform="matrix(1 0 -0 1 18.5 689.5)" font-size="10" font-family="Helvetica"><tspan y="-3" x="178.4189 183.9809 189.5429 195.10489 198.43489 203.99689 206.77489 215.10489 220.66689 222.88889 225.11089 230.67288">Lauro M&#x00fc;ller</tspan></text>
<path transform="matrix(1,0,0,-1,0,1088)" d="M 10.5 774.5 L 260.5 774.5 L 260.5 592.5 L 10.5 592.5 L 10.5 774.5 Z " fill="#a9c2ff"/>
<path transform="matrix(1,0,0,1,10.5,313.5)" stroke-width="1" stroke-linecap="butt" stroke-miterlimit="10" stroke-linejoin="miter" fill="none" stroke="#000000" d="M 0 0 L 250 0 L 250 182 L 0 182 L 0 0 Z "/>
<text xml:space="preserve" transform="matrix(1 0 -0 1 18.5 339.5)" font-size="14" font-family="Helvetica" font-weight="bold"><tspan y="-4" x="70.32764 81.216838 85.10603 93.657238 101.44404 109.99524 117.78204 121.67124 133.33324 141.12004 146.56885 150.45804 159.00923">Giosu&#x00e8; Mariot</tspan></text>
<text fill="#3c465f" xml:space="preserve" transform="matrix(1 0 -0 1 18.5 358.5)" font-size="10" font-family="Helvetica" font-weight="bold"><tspan y="-3" x="0 7.2220008 12.784001 18.346003 23.908003 26.686003 35.578004 41.140005 47.248006 50.578004">Nascimento</tspan></text>
<text fill="#3c465f" xml:space="preserve" transform="matrix(1 0 -0 1 202.4512 358.5)" font-size="10" font-family="Helvetica"><tspan y="-3" x="0 5.5620005 11.124001 13.906001 19.468003 25.030003 27.812003 33.374 38.936 44.498">17/01/1857</tspan></text>
<text fill="#3c465f" xml:space="preserve" transform="matrix(1 0 -0 1 18.5 371.5)" font-size="10" font-family="Helvetica"><tspan y="-3" x="151.7148 158.3848 160.6068 163.9368 169.4988 175.06079 180.62279 183.40079 186.17879 191.74079 197.30278 202.86478 208.42678 213.98877 217.31877 222.88077 228.44277">Pirago, Longarone</tspan></text>
<text fill="#3c465f" xml:space="preserve" transform="matrix(1 0 -0 1 18.5 388.5)" font-size="10" font-family="Helvetica" font-weight="bold"><tspan y="-3" x="0 7.2220008 12.784001 18.346003 23.908003 32.800004 38.362005 44.470006 47.800004">Casamento</tspan></text>
<text fill="#3c465f" xml:space="preserve" transform="matrix(1 0 -0 1 202.4512 388.5)" font-size="10" font-family="Helvetica"><tspan y="-3" x="0 5.5620005 11.124001 13.906001 19.468003 25.030003 27.812003 33.374 38.936 44.498">29/07/1889</tspan></text>
<text fill="#3c465f" xml:space="preserve" transform="matrix(1 0 -0 1 18.5 401.5)" font-size="10" font-family="Helvetica"><tspan y="-3" x="172.8623 177.8623 183.4243 186.7543 192.3163 197.3163 202.8783 205.6563 212.8783 218.44029 223.44029 228.44029">Teresa Rosso</tspan></text>
<text fill="#3c465f" xml:space="preserve" transform="matrix(1 0 -0 1 18.5 414.5)" font-size="10" font-family="Helvetica"><tspan y="-3" x="127.2861 134.5081 136.7301 142.2921 145.0701 152.2921 157.8541 162.8541 168.41609 171.7461 174.5241 180.08609 182.86409 185.64209 192.86409 196.19409 201.75609 206.75609 211.75609 217.31809 222.88008 228.44208">Rio Deserto, Urussanga</tspan></text>
<text fill="#3c465f" xml:space="preserve" transform="matrix(1 0 -0 1 18.5 431.5)" font-size="10" font-family="Helvetica" font-weight="bold"><tspan y="-3" x="0 7.2220008 12.784001 18.346003 23.908003 32.800004 38.362005 44.470006 47.800004">Casamento</tspan></text>
<text fill="#3c465f" xml:space="preserve" transform="matrix(1 0 -0 1 202.4512 431.5)" font-size="10" font-family="Helvetica"><tspan y="-3" x="0 5.5620005 11.124001 13.906001 19.468003 25.030003 27.812003 33.374 38.936 44.498">13/09/1894</tspan></text>
<text fill="#3c465f" xml:space="preserve" transform="matrix(1 0 -0 1 18.5 444.5)" font-size="10" font-family="Helvetica"><tspan y="-3" x="151.1729 158.9509 161.1729 166.7349 171.7349 177.29689 182.85889 188.42089 193.98288 196.76088 203.98288 209.54488 212.87488 218.43688 223.99887 226.22087 228.44287">Giovanna Cordella</tspan></text>
<text fill="#3c465f" xml:space="preserve" transform="matrix(1 0 -0 1 18.5 457.5)" font-size="10" font-family="Helvetica"><tspan y="-3" x="127.2861 134.5081 136.7301 142.2921 145.0701 152.2921 157.8541 162.8541 168.41609 171.7461 174.5241 180.08609 182.86409 185.64209 192.86409 196.19409 201.75609 206.75609 211.75609 217.31809 222.88008 228.44208">Rio Deserto, Urussanga</tspan></text>
<text fill="#3c465f" xml:space="preserve" transform="matrix(1 0 -0 1 18.5 474.5)" font-size="10" font-family="Helvetica" font-weight="bold"><tspan y="-3" x="0 7.778001 13.886001 16.664 19.994">&#x00d3;bito</tspan></text>
<text fill="#3c465f" xml:space="preserve" transform="matrix(1 0 -0 1 202.4512 474.5)" font-size="10" font-family="Helvetica"><tspan y="-3" x="0 5.5620005 11.124001 13.906001 19.468003 25.030003 27.812003 33.374 38.936 44.498">04/06/1921</tspan></text>
<text fill="#3c465f" xml:space="preserve" transform="matrix(1 0 -0 1 18.5 487.5)" font-size="10" font-family="Helvetica"><tspan y="-3" x="178.4189 183.9809 189.5429 195.10489 198.43489 203.99689 206.77489 215.10489 220.66689 222.88889 225.11089 230.67288">Lauro M&#x00fc;ller</tspan></text>
<path transform="matrix(1,0,0,-1,0,1088)" d="M 10.5 875.5 L 260.5 875.5 L 260.5 779.5 L 10.5 779.5 L 10.5 875.5 Z " fill="#a9c2ff"/>
<path transform="matrix(1,0,0,1,10.5,212.5)" stroke-width="1" stroke-linecap="butt" stroke-miterlimit="10" stroke-linejoin="miter" fill="none" stroke="#000000" d="M 0 0 L 250 0 L 250 96 L 0 96 L 0 0 Z "/>
<text xml:space="preserve" transform="matrix(1 0 -0 1 18.5 238.5)" font-size="14" font-family="Helvetica" font-weight="bold"><tspan y="-4" x="64.10693 74.99613 78.88533 87.43653 95.223339 103.01014 111.56134 120.11254 124.00174 127.89094 139.55294 147.33974 152.78855 156.67774 165.22893">Giovanni Mariot</tspan></text>
<text fill="#3c465f" xml:space="preserve" transform="matrix(1 0 -0 1 18.5 257.5)" font-size="10" font-family="Helvetica" font-weight="bold"><tspan y="-3" x="0 7.2220008 12.784001 18.346003 23.908003 26.686003 35.578004 41.140005 47.248006 50.578004">Nascimento</tspan></text>
<text fill="#3c465f" xml:space="preserve" transform="matrix(1 0 -0 1 202.4512 257.5)" font-size="10" font-family="Helvetica"><tspan y="-3" x="0 5.5620005 11.124001 13.906001 19.468003 25.030003 27.812003 33.374 38.936 44.498">04/08/1854</tspan></text>
<text fill="#3c465f" xml:space="preserve" transform="matrix(1 0 -0 1 18.5 270.5)" font-size="10" font-family="Helvetica"><tspan y="-3" x="151.7148 158.3848 160.6068 163.9368 169.4988 175.06079 180.62279 183.40079 186.17879 191.74079 197.30278 202.86478 208.42678 213.98877 217.31877 222.88077 228.44277">Pirago, Longarone</tspan></text>
<text fill="#3c465f" xml:space="preserve" transform="matrix(1 0 -0 1 18.5 287.5)" font-size="10" font-family="Helvetica" font-weight="bold"><tspan y="-3" x="0 7.778001 13.886001 16.664 19.994">&#x00d3;bito</tspan></text>
<text fill="#3c465f" xml:space="preserve" transform="matrix(1 0 -0 1 221.6357 287.5)" font-size="10" font-family="Helvetica"><tspan y="-3" x="0 5.8400008 8.618001 14.180001 19.742003 25.304003">~ 1887</tspan></text>
<text fill="#3c465f" xml:space="preserve" transform="matrix(1 0 -0 1 18.5 300.5)" font-size="10" font-family="Helvetica"><tspan y="-3" x="200.6309 206.1929 211.7549 217.3169 222.87889 228.44089">Laguna</tspan></text>
<path transform="matrix(1,0,0,-1,0,1088)" d="M 310.5 696 L 560.5 696 L 560.5 557 L 310.5 557 L 310.5 696 Z " fill="#a9c2ff"/>
<path transform="matrix(1,0,0,1,310.5,392)" stroke-width="1" stroke-linecap="butt" stroke-miterlimit="10" stroke-linejoin="miter" fill="none" stroke="#000000" d="M 0 0 L 250 0 L 250 139 L 0 139 L 0 0 Z "/>
<text xml:space="preserve" transform="matrix(1 0 -0 1 318.5 418)" font-size="14" font-family="Helvetica" font-weight="bold"><tspan y="-4" x="45.44482 57.10682 64.89362 69.555629 74.21763 82.00443 90.55563 94.44483 98.33403 106.88523 115.43643 123.223239 130.22324 134.11243 142.66362 146.55281 158.21482 166.00162 171.45043 175.33962 183.89081">Matteo Ignazio Mariot</tspan></text>
<text fill="#3c465f" xml:space="preserve" transform="matrix(1 0 -0 1 318.5 437)" font-size="10" font-family="Helvetica" font-weight="bold"><tspan y="-3" x="0 7.2220008 12.784001 18.346003 23.908003 26.686003 35.578004 41.140005 47.248006 50.578004">Nascimento</tspan></text>
<text fill="#3c465f" xml:space="preserve" transform="matrix(1 0 -0 1 502.4512 437)" font-size="10" font-family="Helvetica"><tspan y="-3" x="0 5.5620005 11.124001 13.906001 19.468003 25.030003 27.812003 33.374 38.936 44.498">30/01/1818</tspan></text>
<text fill="#3c465f" xml:space="preserve" transform="matrix(1 0 -0 1 318.5 450)" font-size="10" font-family="Helvetica"><tspan y="-3" x="151.7148 158.3848 160.6068 163.9368 169.4988 175.06079 180.62279 183.40079 186.17879 191.74079 197.30278 202.86478 208.42678 213.98877 217.31877 222.88077 228.44277">Pirago, Longarone</tspan></text>
<text fill="#3c465f" xml:space="preserve" transform="matrix(1 0 -0 1 318.5 467)" font-size="10" font-family="Helvetica" font-weight="bold"><tspan y="-3" x="0 7.2220008 12.784001 18.346003 23.908003 32.800004 38.362005 44.470006 47.800004">Casamento</tspan></text>
<text fill="#3c465f" xml:space="preserve" transform="matrix(1 0 -0 1 502.4512 467)" font-size="10" font-family="Helvetica"><tspan y="-3" x="0 5.5620005 11.124001 13.906001 19.468003 25.030003 27.812003 33.374 38.936 44.498">03/02/1847</tspan></text>
<text fill="#3c465f" xml:space="preserve" transform="matrix(1 0 -0 1 318.5 480)" font-size="10" font-family="Helvetica"><tspan y="-3" x="161.168 167.838 173.4 178.96199 184.52399 187.30199 193.40999 198.97199 204.53398 207.31198 212.87398 218.43598 223.99797 226.21997 228.44197">Anna Fontanella</tspan></text>
<text fill="#3c465f" xml:space="preserve" transform="matrix(1 0 -0 1 318.5 493)" font-size="10" font-family="Helvetica"><tspan y="-3" x="186.1777 191.7397 197.3017 202.8637 208.42569 213.98769 217.31769 222.87969 228.44168">Longarone</tspan></text>
<text fill="#3c465f" xml:space="preserve" transform="matrix(1 0 -0 1 318.5 510)" font-size="10" font-family="Helvetica" font-weight="bold"><tspan y="-3" x="0 7.778001 13.886001 16.664 19.994">&#x00d3;bito</tspan></text>
<text fill="#3c465f" xml:space="preserve" transform="matrix(1 0 -0 1 503.1885 510)" font-size="10" font-family="Helvetica"><tspan y="-3" x="0 4.8240005 10.3880009 13.162002 18.726002 24.290003 27.064003 32.628007 38.19201 43.756013">11/05/1896</tspan></text>
<text fill="#3c465f" xml:space="preserve" transform="matrix(1 0 -0 1 318.5 523)" font-size="10" font-family="Helvetica"><tspan y="-3" x="127.2861 134.5081 136.7301 142.2921 145.0701 152.2921 157.8541 162.8541 168.41609 171.7461 174.5241 180.08609 182.86409 185.64209 192.86409 196.19409 201.75609 206.75609 211.75609 217.31809 222.88008 228.44208">Rio Deserto, Urussanga</tspan></text>
</g>
</svg>
