<?xml version="1.0" encoding="UTF-8" standalone="no"?>
<!DOCTYPE svg PUBLIC "-//W3C//DTD SVG 1.1//EN" "http://www.w3.org/Graphics/SVG/1.1/DTD/svg11.dtd">
<svg xmlns="http://www.w3.org/2000/svg" xmlns:xlink="http://www.w3.org/1999/xlink" version="1.1" width="551pt" height="633pt" viewBox="0 0 551 633">
<g enable-background="new">
<path transform="matrix(1,0,0,1,425.5,260)" stroke-width="2" stroke-linecap="round" stroke-miterlimit="10" stroke-linejoin="miter" fill="none" stroke="#000000" d="M 0 0 L 0 7.500008 M 0 15.00002 L 0 7.500008 "/>
<path transform="matrix(1,0,0,1,250.5,42)" stroke-width="2" stroke-linecap="round" stroke-miterlimit="10" stroke-linejoin="miter" fill="none" stroke="#000000" d="M 25 555.5001 L 25 .00008392334 M 0 555.5 L 25 555.5 M 0 300.5 L 25 300.5 M 0 470.5 L 25 470.5 M 0 202.5 L 25 202.5 M 0 0 L 25 0 M 0 385.5 L 25 385.5 M 0 98 L 25 98 M 50 274.5 L 25 274.5 "/>
<path transform="matrix(1,0,0,-1,0,633)" d="M .5 155.5 L 250.5 155.5 L 250.5 85.5 L .5 85.5 L .5 155.5 Z " fill="#ffc1a9"/>
<path transform="matrix(1,0,0,1,.5,477.5)" stroke-width="1" stroke-linecap="butt" stroke-miterlimit="10" stroke-linejoin="miter" fill="none" stroke="#000000" d="M 0 0 L 250 0 L 250 70 L 0 70 L 0 0 Z "/>
<text xml:space="preserve" transform="matrix(1 0 -0 1 8.5 503.5)" font-size="14" font-family="Helvetica" font-weight="bold"><tspan y="-4" x="58.26904 69.93104 77.71784 83.16664 91.71784 100.26904 108.05585 113.50465 117.393848 122.05585 129.84265 133.73184 145.39385 153.18065 158.62946 162.51865 171.06984">Margherita Mariot</tspan></text>
<text fill="#5f463c" xml:space="preserve" transform="matrix(1 0 -0 1 8.5 522.5)" font-size="10" font-family="Helvetica" font-weight="bold"><tspan y="-3" x="0 7.2220008 12.784001 18.346003 23.908003 26.686003 35.578004 41.140005 47.248006 50.578004">Nascimento</tspan></text>
<text fill="#5f463c" xml:space="preserve" transform="matrix(1 0 -0 1 192.4512 522.5)" font-size="10" font-family="Helvetica"><tspan y="-3" x="0 5.5620005 11.124001 13.906001 19.468003 25.030003 27.812003 33.374 38.936 44.498">26/07/1890</tspan></text>
<text fill="#5f463c" xml:space="preserve" transform="matrix(1 0 -0 1 8.5 539.5)" font-size="10" font-family="Helvetica" font-weight="bold"><tspan y="-3" x="0 7.778001 13.886001 16.664 19.994">&#x00d3;bito</tspan></text>
<text fill="#5f463c" xml:space="preserve" transform="matrix(1 0 -0 1 192.4512 539.5)" font-size="10" font-family="Helvetica"><tspan y="-3" x="0 5.5620005 11.124001 13.906001 19.468003 25.030003 27.812003 33.374 38.936 44.498">08/04/1933</tspan></text>
<path transform="matrix(1,0,0,-1,0,633)" d="M .5 70.5 L 250.5 70.5 L 250.5 .5 L .5 .5 L .5 70.5 Z " fill="#ffc1a9"/>
<path transform="matrix(1,0,0,1,.5,562.5)" stroke-width="1" stroke-linecap="butt" stroke-miterlimit="10" stroke-linejoin="miter" fill="none" stroke="#000000" d="M 0 0 L 250 0 L 250 70 L 0 70 L 0 0 Z "/>
<text xml:space="preserve" transform="matrix(1 0 -0 1 8.5 588.5)" font-size="14" font-family="Helvetica" font-weight="bold"><tspan y="-4" x="64.49658 74.60738 83.158588 90.94539 99.49659 103.38579 107.27499 115.82619 123.61299 127.50219 139.16419 146.95099 152.3998 156.28899 164.84018">Dusolina Mariot</tspan></text>
<text fill="#5f463c" xml:space="preserve" transform="matrix(1 0 -0 1 8.5 607.5)" font-size="10" font-family="Helvetica" font-weight="bold"><tspan y="-3" x="0 7.2220008 12.784001 18.346003 23.908003 26.686003 35.578004 41.140005 47.248006 50.578004">Nascimento</tspan></text>
<text fill="#5f463c" xml:space="preserve" transform="matrix(1 0 -0 1 220.2539 607.5)" font-size="10" font-family="Helvetica"><tspan y="-3" x="0 5.5620005 11.124001 16.686">1892</tspan></text>
<text fill="#5f463c" xml:space="preserve" transform="matrix(1 0 -0 1 8.5 624.5)" font-size="10" font-family="Helvetica" font-weight="bold"><tspan y="-3" x="0 7.778001 13.886001 16.664 19.994">&#x00d3;bito</tspan></text>
<path transform="matrix(1,0,0,-1,0,633)" d="M 300.5 358 L 550.5 358 L 550.5 275 L 300.5 275 L 300.5 358 Z " fill="#ffc1a9"/>
<path transform="matrix(1,0,0,1,300.5,275)" stroke-width="1" stroke-linecap="butt" stroke-miterlimit="10" stroke-linejoin="miter" fill="none" stroke="#000000" d="M 0 0 L 250 0 L 250 83 L 0 83 L 0 0 Z "/>
<text xml:space="preserve" transform="matrix(1 0 -0 1 308.5 301)" font-size="14" font-family="Helvetica" font-weight="bold"><tspan y="-4" x="74.98291 83.53411 92.08531 99.866519 103.755718 111.53692 115.42612 126.315319 130.20452 134.09372 141.87493 145.76413 153.54534">Lucia Olivier</tspan></text>
<text fill="#5f463c" xml:space="preserve" transform="matrix(1 0 -0 1 308.5 320)" font-size="10" font-family="Helvetica" font-weight="bold"><tspan y="-3" x="0 7.2220008 12.784001 18.346003 23.908003 26.686003 35.578004 41.140005 47.248006 50.578004">Nascimento</tspan></text>
<text fill="#5f463c" xml:space="preserve" transform="matrix(1 0 -0 1 492.4512 320)" font-size="10" font-family="Helvetica"><tspan y="-3" x="0 5.5620005 11.124001 13.906001 19.468003 25.030003 27.812003 33.374 38.936 44.498">08/05/1856</tspan></text>
<text fill="#5f463c" xml:space="preserve" transform="matrix(1 0 -0 1 308.5 333)" font-size="10" font-family="Helvetica"><tspan y="-3" x="186.1777 191.7397 197.3017 202.8637 208.42569 213.98769 217.31769 222.87969 228.44168">Longarone</tspan></text>
<text fill="#5f463c" xml:space="preserve" transform="matrix(1 0 -0 1 308.5 350)" font-size="10" font-family="Helvetica" font-weight="bold"><tspan y="-3" x="0 7.778001 13.886001 16.664 19.994">&#x00d3;bito</tspan></text>
<path transform="matrix(1,0,0,-1,0,633)" d="M .5 632.5 L 250.5 632.5 L 250.5 549.5 L .5 549.5 L .5 632.5 Z " fill="#ffc1a9"/>
<path transform="matrix(1,0,0,1,.5,.5)" stroke-width="1" stroke-linecap="butt" stroke-miterlimit="10" stroke-linejoin="miter" fill="none" stroke="#000000" d="M 0 0 L 250 0 L 250 83 L 0 83 L 0 0 Z "/>
<text xml:space="preserve" transform="matrix(1 0 -0 1 8.5 26.5)" font-size="14" font-family="Helvetica" font-weight="bold"><tspan y="-4" x="75.76904 87.431049 95.21785 100.66665 104.55585 112.34265 116.23185 127.89385 135.68067 141.12947 145.01866 153.56986">Maria Mariot</tspan></text>
<text fill="#5f463c" xml:space="preserve" transform="matrix(1 0 -0 1 8.5 45.5)" font-size="10" font-family="Helvetica" font-weight="bold"><tspan y="-3" x="0 7.2220008 12.784001 18.346003 23.908003 26.686003 35.578004 41.140005 47.248006 50.578004">Nascimento</tspan></text>
<text fill="#5f463c" xml:space="preserve" transform="matrix(1 0 -0 1 192.4512 45.5)" font-size="10" font-family="Helvetica"><tspan y="-3" x="0 5.5620005 11.124001 13.906001 19.468003 25.030003 27.812003 33.374 38.936 44.498">22/12/1878</tspan></text>
<text fill="#5f463c" xml:space="preserve" transform="matrix(1 0 -0 1 8.5 58.5)" font-size="10" font-family="Helvetica"><tspan y="-3" x="202.877 209.547 215.109 220.109 222.887 226.217 228.439">Austria</tspan></text>
<text fill="#5f463c" xml:space="preserve" transform="matrix(1 0 -0 1 8.5 75.5)" font-size="10" font-family="Helvetica" font-weight="bold"><tspan y="-3" x="0 7.778001 13.886001 16.664 19.994">&#x00d3;bito</tspan></text>
<path transform="matrix(1,0,0,-1,0,633)" d="M .5 436.5 L 250.5 436.5 L 250.5 340.5 L .5 340.5 L .5 436.5 Z " fill="#ffc1a9"/>
<path transform="matrix(1,0,0,1,.5,196.5)" stroke-width="1" stroke-linecap="butt" stroke-miterlimit="10" stroke-linejoin="miter" fill="none" stroke="#000000" d="M 0 0 L 250 0 L 250 96 L 0 96 L 0 0 Z "/>
<text xml:space="preserve" transform="matrix(1 0 -0 1 8.5 222.5)" font-size="14" font-family="Helvetica" font-weight="bold"><tspan y="-4" x="76.55518 86.665988 95.217189 103.76839 111.55519 115.44439 127.10639 134.8932 140.34201 144.2312 152.7824">Anna Mariot</tspan></text>
<text fill="#5f463c" xml:space="preserve" transform="matrix(1 0 -0 1 8.5 241.5)" font-size="10" font-family="Helvetica" font-weight="bold"><tspan y="-3" x="0 7.2220008 12.784001 18.346003 23.908003 26.686003 35.578004 41.140005 47.248006 50.578004">Nascimento</tspan></text>
<text fill="#5f463c" xml:space="preserve" transform="matrix(1 0 -0 1 192.4512 241.5)" font-size="10" font-family="Helvetica"><tspan y="-3" x="0 5.5620005 11.124001 13.906001 19.468003 25.030003 27.812003 33.374 38.936 44.498">10/04/1884</tspan></text>
<text fill="#5f463c" xml:space="preserve" transform="matrix(1 0 -0 1 8.5 254.5)" font-size="10" font-family="Helvetica"><tspan y="-3" x="185.6406 192.8626 196.1926 201.7546 206.7546 211.7546 217.31659 222.87859 228.44058">Urussanga</tspan></text>
<text fill="#5f463c" xml:space="preserve" transform="matrix(1 0 -0 1 8.5 271.5)" font-size="10" font-family="Helvetica" font-weight="bold"><tspan y="-3" x="0 7.778001 13.886001 16.664 19.994">&#x00d3;bito</tspan></text>
<text fill="#5f463c" xml:space="preserve" transform="matrix(1 0 -0 1 192.4512 271.5)" font-size="10" font-family="Helvetica"><tspan y="-3" x="0 5.5620005 11.124001 13.906001 19.468003 25.030003 27.812003 33.374 38.936 44.498">23/12/1957</tspan></text>
<text fill="#5f463c" xml:space="preserve" transform="matrix(1 0 -0 1 8.5 284.5)" font-size="10" font-family="Helvetica"><tspan y="-3" x="201.583 207.325 210.655 216.217 221.217 223.439 228.439">Treviso</tspan></text>
<path transform="matrix(1,0,0,-1,0,633)" d="M 300.5 469 L 550.5 469 L 550.5 373 L 300.5 373 L 300.5 469 Z " fill="#a9c2ff"/>
<path transform="matrix(1,0,0,1,300.5,164)" stroke-width="1" stroke-linecap="butt" stroke-miterlimit="10" stroke-linejoin="miter" fill="none" stroke="#000000" d="M 0 0 L 250 0 L 250 96 L 0 96 L 0 0 Z "/>
<text xml:space="preserve" transform="matrix(1 0 -0 1 308.5 190)" font-size="14" font-family="Helvetica" font-weight="bold"><tspan y="-4" x="74.21729 83.5553 87.444499 95.2313 99.8933 105.3421 113.8933 117.7825 129.4445 137.23131 142.68012 146.5693 155.1205">Pietro Mariot</tspan></text>
<text fill="#3c465f" xml:space="preserve" transform="matrix(1 0 -0 1 308.5 209)" font-size="10" font-family="Helvetica" font-weight="bold"><tspan y="-3" x="0 7.2220008 12.784001 18.346003 23.908003 26.686003 35.578004 41.140005 47.248006 50.578004">Nascimento</tspan></text>
<text fill="#3c465f" xml:space="preserve" transform="matrix(1 0 -0 1 493.1885 209)" font-size="10" font-family="Helvetica"><tspan y="-3" x="0 4.8240005 10.3880009 13.162002 18.726002 24.290003 27.064003 32.628007 38.19201 43.756013">11/01/1848</tspan></text>
<text fill="#3c465f" xml:space="preserve" transform="matrix(1 0 -0 1 308.5 222)" font-size="10" font-family="Helvetica"><tspan y="-3" x="186.1777 191.7397 197.3017 202.8637 208.42569 213.98769 217.31769 222.87969 228.44168">Longarone</tspan></text>
<text fill="#3c465f" xml:space="preserve" transform="matrix(1 0 -0 1 308.5 239)" font-size="10" font-family="Helvetica" font-weight="bold"><tspan y="-3" x="0 7.778001 13.886001 16.664 19.994">&#x00d3;bito</tspan></text>
<text fill="#3c465f" xml:space="preserve" transform="matrix(1 0 -0 1 492.4512 239)" font-size="10" font-family="Helvetica"><tspan y="-3" x="0 5.5620005 11.124001 13.906001 19.468003 25.030003 27.812003 33.374 38.936 44.498">07/12/1933</tspan></text>
<text fill="#3c465f" xml:space="preserve" transform="matrix(1 0 -0 1 308.5 252)" font-size="10" font-family="Helvetica"><tspan y="-3" x="185.6406 192.8626 196.1926 201.7546 206.7546 211.7546 217.31659 222.87859 228.44058">Urussanga</tspan></text>
<path transform="matrix(1,0,0,-1,0,633)" d="M .5 534.5 L 250.5 534.5 L 250.5 451.5 L .5 451.5 L .5 534.5 Z " fill="#a9c2ff"/>
<path transform="matrix(1,0,0,1,.5,98.5)" stroke-width="1" stroke-linecap="butt" stroke-miterlimit="10" stroke-linejoin="miter" fill="none" stroke="#000000" d="M 0 0 L 250 0 L 250 83 L 0 83 L 0 0 Z "/>
<text xml:space="preserve" transform="matrix(1 0 -0 1 8.5 124.5)" font-size="14" font-family="Helvetica" font-weight="bold"><tspan y="-4" x="70.70361 80.814418 88.60122 96.38802 104.17483 109.62363 117.41043 121.29963 132.96163 140.74843 146.19724 150.08643 158.63762">Cesare Mariot</tspan></text>
<text fill="#3c465f" xml:space="preserve" transform="matrix(1 0 -0 1 8.5 143.5)" font-size="10" font-family="Helvetica" font-weight="bold"><tspan y="-3" x="0 7.2220008 12.784001 18.346003 23.908003 26.686003 35.578004 41.140005 47.248006 50.578004">Nascimento</tspan></text>
<text fill="#3c465f" xml:space="preserve" transform="matrix(1 0 -0 1 192.4512 143.5)" font-size="10" font-family="Helvetica"><tspan y="-3" x="0 5.5620005 11.124001 13.906001 19.468003 25.030003 27.812003 33.374 38.936 44.498">19/04/1882</tspan></text>
<text fill="#3c465f" xml:space="preserve" transform="matrix(1 0 -0 1 8.5 156.5)" font-size="10" font-family="Helvetica"><tspan y="-3" x="185.6406 192.8626 196.1926 201.7546 206.7546 211.7546 217.31659 222.87859 228.44058">Urussanga</tspan></text>
<text fill="#3c465f" xml:space="preserve" transform="matrix(1 0 -0 1 8.5 173.5)" font-size="10" font-family="Helvetica" font-weight="bold"><tspan y="-3" x="0 7.778001 13.886001 16.664 19.994">&#x00d3;bito</tspan></text>
<text fill="#3c465f" xml:space="preserve" transform="matrix(1 0 -0 1 192.4512 173.5)" font-size="10" font-family="Helvetica"><tspan y="-3" x="0 5.5620005 11.124001 13.906001 19.468003 25.030003 27.812003 33.374 38.936 44.498">25/01/1952</tspan></text>
<path transform="matrix(1,0,0,-1,0,633)" d="M .5 325.5 L 250.5 325.5 L 250.5 255.5 L .5 255.5 L .5 325.5 Z " fill="#ffc1a9"/>
<path transform="matrix(1,0,0,1,.5,307.5)" stroke-width="1" stroke-linecap="butt" stroke-miterlimit="10" stroke-linejoin="miter" fill="none" stroke="#000000" d="M 0 0 L 250 0 L 250 70 L 0 70 L 0 0 Z "/>
<text xml:space="preserve" transform="matrix(1 0 -0 1 8.5 333.5)" font-size="14" font-family="Helvetica" font-weight="bold"><tspan y="-4" x="71.99902 79.518428 87.30523 92.75403 100.54083 108.32764 116.11444 120.00364 131.66564 139.45244 144.90125 148.79044 157.34163">Teresa Mariot</tspan></text>
<text fill="#5f463c" xml:space="preserve" transform="matrix(1 0 -0 1 8.5 352.5)" font-size="10" font-family="Helvetica" font-weight="bold"><tspan y="-3" x="0 7.2220008 12.784001 18.346003 23.908003 26.686003 35.578004 41.140005 47.248006 50.578004">Nascimento</tspan></text>
<text fill="#5f463c" xml:space="preserve" transform="matrix(1 0 -0 1 192.4512 352.5)" font-size="10" font-family="Helvetica"><tspan y="-3" x="0 5.5620005 11.124001 13.906001 19.468003 25.030003 27.812003 33.374 38.936 44.498">10/03/1886</tspan></text>
<text fill="#5f463c" xml:space="preserve" transform="matrix(1 0 -0 1 8.5 369.5)" font-size="10" font-family="Helvetica" font-weight="bold"><tspan y="-3" x="0 7.778001 13.886001 16.664 19.994">&#x00d3;bito</tspan></text>
<text fill="#5f463c" xml:space="preserve" transform="matrix(1 0 -0 1 192.4512 369.5)" font-size="10" font-family="Helvetica"><tspan y="-3" x="0 5.5620005 11.124001 13.906001 19.468003 25.030003 27.812003 33.374 38.936 44.498">17/04/1903</tspan></text>
<path transform="matrix(1,0,0,-1,0,633)" d="M .5 240.5 L 250.5 240.5 L 250.5 170.5 L .5 170.5 L .5 240.5 Z " fill="#ffc1a9"/>
<path transform="matrix(1,0,0,1,.5,392.5)" stroke-width="1" stroke-linecap="butt" stroke-miterlimit="10" stroke-linejoin="miter" fill="none" stroke="#000000" d="M 0 0 L 250 0 L 250 70 L 0 70 L 0 0 Z "/>
<text xml:space="preserve" transform="matrix(1 0 -0 1 8.5 418.5)" font-size="14" font-family="Helvetica" font-weight="bold"><tspan y="-4" x="38.0415 48.930704 52.819906 61.371107 69.157909 76.94471 85.49591 94.04711 97.93631 106.48751 114.274318 118.16351 122.05271 126.714717 134.50153 138.39072 142.2799 150.06671 153.9559 165.6179 173.40471 178.85352 182.7427 191.2939">Giuseppina Italia Mariot</tspan></text>
<text fill="#5f463c" xml:space="preserve" transform="matrix(1 0 -0 1 8.5 437.5)" font-size="10" font-family="Helvetica" font-weight="bold"><tspan y="-3" x="0 7.2220008 12.784001 18.346003 23.908003 26.686003 35.578004 41.140005 47.248006 50.578004">Nascimento</tspan></text>
<text fill="#5f463c" xml:space="preserve" transform="matrix(1 0 -0 1 192.4512 437.5)" font-size="10" font-family="Helvetica"><tspan y="-3" x="0 5.5620005 11.124001 13.906001 19.468003 25.030003 27.812003 33.374 38.936 44.498">17/03/1888</tspan></text>
<text fill="#5f463c" xml:space="preserve" transform="matrix(1 0 -0 1 8.5 454.5)" font-size="10" font-family="Helvetica" font-weight="bold"><tspan y="-3" x="0 7.778001 13.886001 16.664 19.994">&#x00d3;bito</tspan></text>
</g>
</svg>
