<?xml version="1.0" encoding="UTF-8" standalone="no"?>
<svg
   xmlns:dc="http://purl.org/dc/elements/1.1/"
   xmlns:cc="http://creativecommons.org/ns#"
   xmlns:rdf="http://www.w3.org/1999/02/22-rdf-syntax-ns#"
   xmlns:svg="http://www.w3.org/2000/svg"
   xmlns="http://www.w3.org/2000/svg"
   viewBox="0 0 620.87146 683.67963"
   height="683.67963"
   width="620.87146"
   xml:space="preserve"
   id="svg2"
   version="1.1"><metadata
     id="metadata8"><rdf:RDF><cc:Work
         rdf:about=""><dc:format>image/svg+xml</dc:format><dc:type
           rdf:resource="http://purl.org/dc/dcmitype/StillImage" /></cc:Work></rdf:RDF></metadata><defs
     id="defs6" /><g
     transform="matrix(1.3333333,0,0,-1.3333333,0,683.6796)"
     id="g10"><g
       id="g12" /><g
       id="g14"><g
         transform="matrix(1,0,0,-1,200.25,484.0097)"
         id="g16"><path
           id="path18"
           style="fill:none;stroke:#000000;stroke-width:2.20000005;stroke-linecap:round;stroke-linejoin:miter;stroke-miterlimit:10;stroke-dasharray:none;stroke-opacity:1"
           d="M 32.45179,455.2598 V 0 M 0,3.436891e-5 H 32.45179 M 0,380.6103 H 32.45179 M 0,304.5686 H 32.45179 M 0,228.6984 H 32.45179 M 0,74.27403 H 32.45179 M 0,455.2597 H 32.45179 M 0,150.7921 h 32.45179 m 32.45178,107.608 H 32.45179" /></g><g
         transform="matrix(1,0,0,-1,365.1536,306.9097)"
         id="g20"><path
           id="path22"
           style="fill:none;stroke:#000000;stroke-width:2.20000005;stroke-linecap:round;stroke-linejoin:miter;stroke-miterlimit:10;stroke-dasharray:none;stroke-opacity:1"
           d="M 0,0 V 26.40001 M 0,52.80002 V 26.40001" /></g><path
         id="path24"
         style="fill:#ffc0a9;fill-opacity:1;fill-rule:nonzero;stroke:none"
         d="m 0.25,512.5097 h 200 c 0,0 0,0 0,0 v -57 c 0,0 0,0 0,0 h -200 c 0,0 0,0 0,0 v 57 c 0,0 0,0 0,0 z" /><g
         transform="matrix(1,0,0,-1,0.25,512.5097)"
         id="g26"><path
           id="path28"
           style="fill:none;stroke:#000000;stroke-width:0.5;stroke-linecap:butt;stroke-linejoin:miter;stroke-miterlimit:10;stroke-dasharray:none;stroke-opacity:1"
           d="m 0,0 h 200 c 0,0 0,0 0,0 v 57 c 0,0 0,0 0,0 H 0 c 0,0 0,0 0,0 V 0 c 0,0 0,0 0,0 z" /></g><g
         transform="translate(10.25,484.5097)"
         id="g30"><text
           id="text34"
           style="font-variant:normal;font-weight:bold;font-size:14px;font-family:Helvetica;-inkscape-font-specification:Helvetica-Bold;writing-mode:lr-tb;fill:#000000;fill-opacity:1;fill-rule:nonzero;stroke:none"
           transform="matrix(1,0,0,-1,48.76904,4)"><tspan
             id="tspan32"
             y="0"
             x="0 11.662 19.448799 24.8976 28.7868 36.573601 40.462799 52.124802 59.911598 65.360397 69.249603 77.800797">Maria Mariot</tspan></text>
</g><g
         transform="translate(10.25,465.5097)"
         id="g36"><text
           id="text40"
           style="font-variant:normal;font-weight:bold;font-size:10px;font-family:Helvetica;-inkscape-font-specification:Helvetica-Bold;writing-mode:lr-tb;fill:#5f463c;fill-opacity:1;fill-rule:nonzero;stroke:none"
           transform="matrix(1,0,0,-1,0,3)"><tspan
             id="tspan38"
             y="0"
             x="0 7.2220001 12.784 18.346001 23.908001 26.686001 35.577999 41.139999 47.248001 50.577999">Nascimento</tspan></text>
</g><g
         transform="translate(140.2012,465.5097)"
         id="g42"><text
           id="text46"
           style="font-variant:normal;font-weight:normal;font-size:10px;font-family:Helvetica;-inkscape-font-specification:Helvetica;writing-mode:lr-tb;fill:#5f463c;fill-opacity:1;fill-rule:nonzero;stroke:none"
           transform="matrix(1,0,0,-1,0,3)"><tspan
             id="tspan44"
             y="0"
             x="0 5.5619998 11.124 13.906 19.468 25.030001 27.812 33.374001 38.936001 44.498001">22/12/1878</tspan></text>
</g><path
         id="path48"
         style="fill:#a9c2ff;fill-opacity:1;fill-rule:nonzero;stroke:none"
         d="m 0.25,438.2357 h 200 c 0,0 0,0 0,0 v -57 c 0,0 0,0 0,0 h -200 c 0,0 0,0 0,0 v 57 c 0,0 0,0 0,0 z" /><g
         transform="matrix(1,0,0,-1,0.25,438.2357)"
         id="g50"><path
           id="path52"
           style="fill:none;stroke:#000000;stroke-width:0.5;stroke-linecap:butt;stroke-linejoin:miter;stroke-miterlimit:10;stroke-dasharray:none;stroke-opacity:1"
           d="m 0,0 h 200 c 0,0 0,0 0,0 v 57 c 0,0 0,0 0,0 H 0 c 0,0 0,0 0,0 V 0 c 0,0 0,0 0,0 z" /></g><g
         transform="translate(10.25,410.2357)"
         id="g54"><text
           id="text58"
           style="font-variant:normal;font-weight:bold;font-size:14px;font-family:Helvetica;-inkscape-font-specification:Helvetica-Bold;writing-mode:lr-tb;fill:#000000;fill-opacity:1;fill-rule:nonzero;stroke:none"
           transform="matrix(1,0,0,-1,43.70361,4)"><tspan
             id="tspan56"
             y="0"
             x="0 10.1108 17.8976 25.684401 33.471199 38.919998 46.706799 50.596001 62.257999 70.0448 75.493599 79.382797 87.933998">Cesare Mariot</tspan></text>
</g><g
         transform="translate(10.25,391.2357)"
         id="g60"><text
           id="text64"
           style="font-variant:normal;font-weight:bold;font-size:10px;font-family:Helvetica;-inkscape-font-specification:Helvetica-Bold;writing-mode:lr-tb;fill:#3c475f;fill-opacity:1;fill-rule:nonzero;stroke:none"
           transform="matrix(1,0,0,-1,0,3)"><tspan
             id="tspan62"
             y="0"
             x="0 7.2220001 12.784 18.346001 23.908001 26.686001 35.577999 41.139999 47.248001 50.577999">Nascimento</tspan></text>
</g><g
         transform="translate(140.2012,391.2357)"
         id="g66"><text
           id="text70"
           style="font-variant:normal;font-weight:normal;font-size:10px;font-family:Helvetica;-inkscape-font-specification:Helvetica;writing-mode:lr-tb;fill:#3c475f;fill-opacity:1;fill-rule:nonzero;stroke:none"
           transform="matrix(1,0,0,-1,0,3)"><tspan
             id="tspan68"
             y="0"
             x="0 5.5619998 11.124 13.906 19.468 25.030001 27.812 33.374001 38.936001 44.498001">19/04/1882</tspan></text>
</g><path
         id="path72"
         style="fill:#ffc0a9;fill-opacity:1;fill-rule:nonzero;stroke:none"
         d="m 0.25,57.25 h 200 c 0,0 0,0 0,0 v -57 c 0,0 0,0 0,0 h -200 c 0,0 0,0 0,0 v 57 c 0,0 0,0 0,0 z" /><g
         transform="matrix(1,0,0,-1,0.25,57.25)"
         id="g74"><path
           id="path76"
           style="fill:none;stroke:#000000;stroke-width:0.5;stroke-linecap:butt;stroke-linejoin:miter;stroke-miterlimit:10;stroke-dasharray:none;stroke-opacity:1"
           d="m 0,0 h 200 c 0,0 0,0 0,0 v 57 c 0,0 0,0 0,0 H 0 c 0,0 0,0 0,0 V 0 c 0,0 0,0 0,0 z" /></g><g
         transform="translate(10.25,29.25)"
         id="g78"><text
           id="text82"
           style="font-variant:normal;font-weight:bold;font-size:14px;font-family:Helvetica;-inkscape-font-specification:Helvetica-Bold;writing-mode:lr-tb;fill:#000000;fill-opacity:1;fill-rule:nonzero;stroke:none"
           transform="matrix(1,0,0,-1,37.49658,4)"><tspan
             id="tspan80"
             y="0"
             x="0 10.1108 18.662001 26.448799 35 38.889198 42.7784 51.329601 59.116402 63.0056 74.667603 82.454399 87.903198 91.792397 100.3436">Dusolina Mariot</tspan></text>
</g><g
         transform="translate(10.25,10.25)"
         id="g84"><text
           id="text88"
           style="font-variant:normal;font-weight:bold;font-size:10px;font-family:Helvetica;-inkscape-font-specification:Helvetica-Bold;writing-mode:lr-tb;fill:#5f463c;fill-opacity:1;fill-rule:nonzero;stroke:none"
           transform="matrix(1,0,0,-1,0,3)"><tspan
             id="tspan86"
             y="0"
             x="0 7.2220001 12.784 18.346001 23.908001 26.686001 35.577999 41.139999 47.248001 50.577999">Nascimento</tspan></text>
</g><g
         transform="translate(140.2012,10.25)"
         id="g90"><text
           id="text94"
           style="font-variant:normal;font-weight:normal;font-size:10px;font-family:Helvetica;-inkscape-font-specification:Helvetica;writing-mode:lr-tb;fill:#5f463c;fill-opacity:1;fill-rule:nonzero;stroke:none"
           transform="matrix(1,0,0,-1,0,3)"><tspan
             id="tspan92"
             y="0"
             x="0 5.5619998 11.124 13.906 19.468 25.030001 27.812 33.374001 38.936001 44.498001">25/07/1892</tspan></text>
</g><path
         id="path96"
         style="fill:#a9c2ff;fill-opacity:1;fill-rule:nonzero;stroke:none"
         d="m 265.1536,363.9097 h 200 c 0,0 0,0 0,0 v -57 c 0,0 0,0 0,0 h -200 c 0,0 0,0 0,0 v 57 c 0,0 0,0 0,0 z" /><g
         transform="matrix(1,0,0,-1,265.1536,363.9097)"
         id="g98"><path
           id="path100"
           style="fill:none;stroke:#000000;stroke-width:1;stroke-linecap:butt;stroke-linejoin:miter;stroke-miterlimit:10;stroke-dasharray:none;stroke-opacity:1"
           d="m 0,0 h 200 c 0,0 0,0 0,0 v 57 c 0,0 0,0 0,0 H 0 c 0,0 0,0 0,0 V 0 c 0,0 0,0 0,0 z" /></g><g
         transform="translate(275.1536,335.9097)"
         id="g102"><text
           id="text106"
           style="font-variant:normal;font-weight:bold;font-size:14px;font-family:Helvetica;-inkscape-font-specification:Helvetica-Bold;writing-mode:lr-tb;fill:#000000;fill-opacity:1;fill-rule:nonzero;stroke:none"
           transform="matrix(1,0,0,-1,47.21729,4)"><tspan
             id="tspan104"
             y="0"
             x="0 9.3380003 13.2272 21.014 25.676001 31.1248 39.675999 43.565201 55.2272 63.014 68.462799 72.351997 80.903198">Pietro Mariot</tspan></text>
</g><g
         transform="translate(275.1536,316.9097)"
         id="g108"><text
           id="text112"
           style="font-variant:normal;font-weight:bold;font-size:10px;font-family:Helvetica;-inkscape-font-specification:Helvetica-Bold;writing-mode:lr-tb;fill:#3c475f;fill-opacity:1;fill-rule:nonzero;stroke:none"
           transform="matrix(1,0,0,-1,0,3)"><tspan
             id="tspan110"
             y="0"
             x="0 7.2220001 12.784 18.346001 23.908001 26.686001 35.577999 41.139999 47.248001 50.577999">Nascimento</tspan></text>
</g><g
         transform="translate(405.842,316.9097)"
         id="g114"><text
           id="text118"
           style="font-variant:normal;font-weight:normal;font-size:10px;font-family:Helvetica;-inkscape-font-specification:Helvetica;writing-mode:lr-tb;fill:#3c475f;fill-opacity:1;fill-rule:nonzero;stroke:none"
           transform="matrix(1,0,0,-1,0,3)"><tspan
             id="tspan116"
             y="0"
             x="0 4.8239999 10.388 13.162 18.726 24.290001 27.063999 32.627998 38.192001 43.756001">11/01/1848</tspan></text>
</g><path
         id="path120"
         style="fill:#ffc0a9;fill-opacity:1;fill-rule:nonzero;stroke:none"
         d="m 0.25,361.7177 h 200 c 0,0 0,0 0,0 v -57 c 0,0 0,0 0,0 h -200 c 0,0 0,0 0,0 v 57 c 0,0 0,0 0,0 z" /><g
         transform="matrix(1,0,0,-1,0.25,361.7177)"
         id="g122"><path
           id="path124"
           style="fill:none;stroke:#000000;stroke-width:0.5;stroke-linecap:butt;stroke-linejoin:miter;stroke-miterlimit:10;stroke-dasharray:none;stroke-opacity:1"
           d="m 0,0 h 200 c 0,0 0,0 0,0 v 57 c 0,0 0,0 0,0 H 0 c 0,0 0,0 0,0 V 0 c 0,0 0,0 0,0 z" /></g><g
         transform="translate(10.25,333.7177)"
         id="g126"><text
           id="text130"
           style="font-variant:normal;font-weight:bold;font-size:14px;font-family:Helvetica;-inkscape-font-specification:Helvetica-Bold;writing-mode:lr-tb;fill:#000000;fill-opacity:1;fill-rule:nonzero;stroke:none"
           transform="matrix(1,0,0,-1,49.55518,4)"><tspan
             id="tspan128"
             y="0"
             x="0 10.1108 18.662001 27.2132 35 38.889198 50.551201 58.338001 63.7868 67.676003 76.227203">Anna Mariot</tspan></text>
</g><g
         transform="translate(10.25,314.7177)"
         id="g132"><text
           id="text136"
           style="font-variant:normal;font-weight:bold;font-size:10px;font-family:Helvetica;-inkscape-font-specification:Helvetica-Bold;writing-mode:lr-tb;fill:#5f463c;fill-opacity:1;fill-rule:nonzero;stroke:none"
           transform="matrix(1,0,0,-1,0,3)"><tspan
             id="tspan134"
             y="0"
             x="0 7.2220001 12.784 18.346001 23.908001 26.686001 35.577999 41.139999 47.248001 50.577999">Nascimento</tspan></text>
</g><g
         transform="translate(140.2012,314.7177)"
         id="g138"><text
           id="text142"
           style="font-variant:normal;font-weight:normal;font-size:10px;font-family:Helvetica;-inkscape-font-specification:Helvetica;writing-mode:lr-tb;fill:#5f463c;fill-opacity:1;fill-rule:nonzero;stroke:none"
           transform="matrix(1,0,0,-1,0,3)"><tspan
             id="tspan140"
             y="0"
             x="0 5.5619998 11.124 13.906 19.468 25.030001 27.812 33.374001 38.936001 44.498001">10/04/1884</tspan></text>
</g><path
         id="path144"
         style="fill:#ffc0a9;fill-opacity:1;fill-rule:nonzero;stroke:none"
         d="m 265.1536,254.1097 h 200 c 0,0 0,0 0,0 v -57 c 0,0 0,0 0,0 h -200 c 0,0 0,0 0,0 v 57 c 0,0 0,0 0,0 z" /><g
         transform="matrix(1,0,0,-1,265.1536,254.1097)"
         id="g146"><path
           id="path148"
           style="fill:none;stroke:#000000;stroke-width:0.5;stroke-linecap:butt;stroke-linejoin:miter;stroke-miterlimit:10;stroke-dasharray:none;stroke-opacity:1"
           d="m 0,0 h 200 c 0,0 0,0 0,0 v 57 c 0,0 0,0 0,0 H 0 c 0,0 0,0 0,0 V 0 c 0,0 0,0 0,0 z" /></g><g
         transform="translate(275.1536,226.1097)"
         id="g150"><text
           id="text154"
           style="font-variant:normal;font-weight:bold;font-size:14px;font-family:Helvetica;-inkscape-font-specification:Helvetica-Bold;writing-mode:lr-tb;fill:#000000;fill-opacity:1;fill-rule:nonzero;stroke:none"
           transform="matrix(1,0,0,-1,47.98291,4)"><tspan
             id="tspan152"
             y="0"
             x="0 8.5511999 17.1024 24.8836 28.7728 36.554001 40.443199 51.332401 55.2216 59.110802 66.891998 70.781197 78.562401">Lucia Olivier</tspan></text>
</g><g
         transform="translate(275.1536,207.1097)"
         id="g156"><text
           id="text160"
           style="font-variant:normal;font-weight:bold;font-size:10px;font-family:Helvetica;-inkscape-font-specification:Helvetica-Bold;writing-mode:lr-tb;fill:#5f463c;fill-opacity:1;fill-rule:nonzero;stroke:none"
           transform="matrix(1,0,0,-1,0,3)"><tspan
             id="tspan158"
             y="0"
             x="0 7.2220001 12.784 18.346001 23.908001 26.686001 35.577999 41.139999 47.248001 50.577999">Nascimento</tspan></text>
</g><g
         transform="translate(405.1047,207.1097)"
         id="g162"><text
           id="text166"
           style="font-variant:normal;font-weight:normal;font-size:10px;font-family:Helvetica;-inkscape-font-specification:Helvetica;writing-mode:lr-tb;fill:#5f463c;fill-opacity:1;fill-rule:nonzero;stroke:none"
           transform="matrix(1,0,0,-1,0,3)"><tspan
             id="tspan164"
             y="0"
             x="0 5.5619998 11.124 13.906 19.468 25.030001 27.812 33.374001 38.936001 44.498001">08/05/1856</tspan></text>
</g><path
         id="path168"
         style="fill:#ffc0a9;fill-opacity:1;fill-rule:nonzero;stroke:none"
         d="m 0.25,131.8994 h 200 c 0,0 0,0 0,0 V 74.89945 c 0,0 0,0 0,0 h -200 c 0,0 0,0 0,0 v 56.99995 c 0,0 0,0 0,0 z" /><g
         transform="matrix(1,0,0,-1,0.25,131.8994)"
         id="g170"><path
           id="path172"
           style="fill:none;stroke:#000000;stroke-width:0.5;stroke-linecap:butt;stroke-linejoin:miter;stroke-miterlimit:10;stroke-dasharray:none;stroke-opacity:1"
           d="m 0,0 h 200 c 0,0 0,0 0,0 v 57 c 0,0 0,0 0,0 H 0 c 0,0 0,0 0,0 V 0 c 0,0 0,0 0,0 z" /></g><g
         transform="translate(10.25,103.8994)"
         id="g174"><text
           id="text178"
           style="font-variant:normal;font-weight:bold;font-size:14px;font-family:Helvetica;-inkscape-font-specification:Helvetica-Bold;writing-mode:lr-tb;fill:#000000;fill-opacity:1;fill-rule:nonzero;stroke:none"
           transform="matrix(1,0,0,-1,31.26904,4)"><tspan
             id="tspan176"
             y="0"
             x="0 11.662 19.448799 24.8976 33.448799 42 49.7868 55.2356 59.124802 63.7868 71.573601 75.462799 87.124802 94.911598 100.3604 104.2496 112.8008">Margherita Mariot</tspan></text>
</g><g
         transform="translate(10.25,84.89945)"
         id="g180"><text
           id="text184"
           style="font-variant:normal;font-weight:bold;font-size:10px;font-family:Helvetica;-inkscape-font-specification:Helvetica-Bold;writing-mode:lr-tb;fill:#5f463c;fill-opacity:1;fill-rule:nonzero;stroke:none"
           transform="matrix(1,0,0,-1,0,3)"><tspan
             id="tspan182"
             y="0"
             x="0 7.2220001 12.784 18.346001 23.908001 26.686001 35.577999 41.139999 47.248001 50.577999">Nascimento</tspan></text>
</g><g
         transform="translate(140.2012,84.89945)"
         id="g186"><text
           id="text190"
           style="font-variant:normal;font-weight:normal;font-size:10px;font-family:Helvetica;-inkscape-font-specification:Helvetica;writing-mode:lr-tb;fill:#5f463c;fill-opacity:1;fill-rule:nonzero;stroke:none"
           transform="matrix(1,0,0,-1,0,3)"><tspan
             id="tspan188"
             y="0"
             x="0 5.5619998 11.124 13.906 19.468 25.030001 27.812 33.374001 38.936001 44.498001">26/07/1890</tspan></text>
</g><path
         id="path192"
         style="fill:#ffc0a9;fill-opacity:1;fill-rule:nonzero;stroke:none"
         d="m 0.25,283.8113 h 200 c 0,0 0,0 0,0 v -57 c 0,0 0,0 0,0 h -200 c 0,0 0,0 0,0 v 57 c 0,0 0,0 0,0 z" /><g
         transform="matrix(1,0,0,-1,0.25,283.8113)"
         id="g194"><path
           id="path196"
           style="fill:none;stroke:#000000;stroke-width:0.5;stroke-linecap:butt;stroke-linejoin:miter;stroke-miterlimit:10;stroke-dasharray:none;stroke-opacity:1"
           d="m 0,0 h 200 c 0,0 0,0 0,0 v 57 c 0,0 0,0 0,0 H 0 c 0,0 0,0 0,0 V 0 c 0,0 0,0 0,0 z" /></g><g
         transform="translate(10.25,255.8113)"
         id="g198"><text
           id="text202"
           style="font-variant:normal;font-weight:bold;font-size:14px;font-family:Helvetica;-inkscape-font-specification:Helvetica-Bold;writing-mode:lr-tb;fill:#000000;fill-opacity:1;fill-rule:nonzero;stroke:none"
           transform="matrix(1,0,0,-1,44.99902,4)"><tspan
             id="tspan200"
             y="0"
             x="0 7.5194001 15.3062 20.754999 28.5418 36.328602 44.115398 48.004601 59.666599 67.4534 72.902199 76.791397 85.342598">Teresa Mariot</tspan></text>
</g><g
         transform="translate(10.25,236.8113)"
         id="g204"><text
           id="text208"
           style="font-variant:normal;font-weight:bold;font-size:10px;font-family:Helvetica;-inkscape-font-specification:Helvetica-Bold;writing-mode:lr-tb;fill:#5f463c;fill-opacity:1;fill-rule:nonzero;stroke:none"
           transform="matrix(1,0,0,-1,0,3)"><tspan
             id="tspan206"
             y="0"
             x="0 7.2220001 12.784 18.346001 23.908001 26.686001 35.577999 41.139999 47.248001 50.577999">Nascimento</tspan></text>
</g><g
         transform="translate(140.2012,236.8113)"
         id="g210"><text
           id="text214"
           style="font-variant:normal;font-weight:normal;font-size:10px;font-family:Helvetica;-inkscape-font-specification:Helvetica;writing-mode:lr-tb;fill:#5f463c;fill-opacity:1;fill-rule:nonzero;stroke:none"
           transform="matrix(1,0,0,-1,0,3)"><tspan
             id="tspan212"
             y="0"
             x="0 5.5619998 11.124 13.906 19.468 25.030001 27.812 33.374001 38.936001 44.498001">10/06/1886</tspan></text>
</g><path
         id="path216"
         style="fill:#ffc0a9;fill-opacity:1;fill-rule:nonzero;stroke:none"
         d="m 0.25,207.9411 h 200 c 0,0 0,0 0,0 v -57 c 0,0 0,0 0,0 h -200 c 0,0 0,0 0,0 v 57 c 0,0 0,0 0,0 z" /><g
         transform="matrix(1,0,0,-1,0.25,207.9411)"
         id="g218"><path
           id="path220"
           style="fill:none;stroke:#000000;stroke-width:0.5;stroke-linecap:butt;stroke-linejoin:miter;stroke-miterlimit:10;stroke-dasharray:none;stroke-opacity:1"
           d="m 0,0 h 200 c 0,0 0,0 0,0 v 57 c 0,0 0,0 0,0 H 0 c 0,0 0,0 0,0 V 0 c 0,0 0,0 0,0 z" /></g><g
         transform="translate(10.25,179.9411)"
         id="g222"><text
           id="text226"
           style="font-variant:normal;font-weight:bold;font-size:14px;font-family:Helvetica;-inkscape-font-specification:Helvetica-Bold;writing-mode:lr-tb;fill:#000000;fill-opacity:1;fill-rule:nonzero;stroke:none"
           transform="matrix(1,0,0,-1,11.0415,4)"><tspan
             id="tspan224"
             y="0"
             x="0 10.8892 14.7784 23.329599 31.1164 38.903198 47.454399 56.0056 59.894798 68.445999 76.232803 80.122002 84.0112 88.673203 96.459999 100.3492 104.2384 112.0252 115.9144 127.5764 135.3632 140.812 144.7012 153.2524">Giuseppina Italia Mariot</tspan></text>
</g><g
         transform="translate(10.25,160.9411)"
         id="g228"><text
           id="text232"
           style="font-variant:normal;font-weight:bold;font-size:10px;font-family:Helvetica;-inkscape-font-specification:Helvetica-Bold;writing-mode:lr-tb;fill:#5f463c;fill-opacity:1;fill-rule:nonzero;stroke:none"
           transform="matrix(1,0,0,-1,0,3)"><tspan
             id="tspan230"
             y="0"
             x="0 7.2220001 12.784 18.346001 23.908001 26.686001 35.577999 41.139999 47.248001 50.577999">Nascimento</tspan></text>
</g><g
         transform="translate(140.2012,160.9411)"
         id="g234"><text
           id="text238"
           style="font-variant:normal;font-weight:normal;font-size:10px;font-family:Helvetica;-inkscape-font-specification:Helvetica;writing-mode:lr-tb;fill:#5f463c;fill-opacity:1;fill-rule:nonzero;stroke:none"
           transform="matrix(1,0,0,-1,0,3)"><tspan
             id="tspan236"
             y="0"
             x="0 5.5619998 11.124 13.906 19.468 25.030001 27.812 33.374001 38.936001 44.498001">17/03/1888</tspan></text>
</g></g></g></svg>